<svg version="1.1" xmlns="http://www.w3.org/2000/svg" viewBox="0 0 817.7056931643829 701.9035983642528">
  <g transform="translate(207.02585907745834 23.382911400942362) rotate(0 186.62604815023042 334.26034348165524)"><path d="M0.8425777314197225 0.5494960573143435 C95.90076772285924 1.7998403161098233, 188.2646788969781 1.3492034617023634, 373.16482450726954 -0.32420774650510226 M-0.25077429826089387 0.2496696342845022 C89.78337200902523 -0.15511909975088134, 178.76904479700167 -0.3420783798034587, 373.10881953855716 0.19727117894943097 M372.65163021821525 0.5017439462244511 C372.8119737571517 203.69060884446503, 371.72647716463 405.39193483279354, 372.97241094846277 668.6290606864895 M373.28038067620247 -0.284898554161191 C370.44541689078716 142.72130518750274, 370.8727429382077 285.7054031399821, 373.1000907520577 668.6608600181695 M374.4600426780556 669.0677582990893 C270.27433820349097 668.0601875399302, 169.23766175140267 667.4787586747271, 0.09907941210722972 669.1744851362606 M373.71664920885553 668.121306132955 C270.24138747710856 666.4259151769387, 168.08488573345747 666.879382567142, 0.5077339391677632 668.3296884860677 M0.7246292375028134 667.8986104616132 C-0.6278974127124027 510.0664297530539, -0.9089735340426639 351.8858214627075, 0.23523388132452966 -0.22531458362936974 M0.3327521730214358 668.400830881035 C-1.9179888097558457 414.75529270771506, -1.789320751837297 160.47551495614812, 0.1057070303708315 0.1840630304068327" stroke="#000000" stroke-width="2" fill="none"></path></g><g transform="translate(206.64616417642992 23.427490844184035) rotate(0 186.75132183409914 14.457831325301186)"><path d="M0.5491206035918651 1.2007357880618914 C82.05157532133677 -2.705418257259187, 163.49488334700115 -1.659662072793137, 373.178657442855 -0.7332498829892373 M0.24949904271731232 0.21232210697223092 C149.02530058143898 0.563498686688773, 297.74827946774764 0.7928297851904621, 373.69978005782986 0.02148067086940671 M374.75700353375896 1.2050705011934042 C375.4221889578879 6.168878424620942, 372.4071449243605 14.655885429469379, 373.7735779761456 27.185641596677215 M372.79039728279486 -0.8452697871252894 C373.70758804469494 6.228403373015476, 374.34667563228993 11.630702212172356, 373.85307630534544 28.64949040266356 M374.0493412069917 27.979238758817196 C276.88690845997934 31.236884701078996, 179.21686216809027 31.26898883523732, 0.6533514528062743 28.618222148503612 M373.10353572245634 28.79226140824503 C246.9823092364494 31.256415434062443, 121.29195564375097 31.156981512664014, -0.19086797386923213 28.530101673458375 M-1.5551912542432547 30.278629074456603 C-0.20024468680192914 19.632748912279297, 0.23612348059843097 9.617367636210393, -0.5632864590734243 1.599334066733718 M-0.2996402056887746 28.983293847764344 C0.4046277746849932 18.527033433576193, -0.255812759668263 7.624069108560402, 0.46015757601708174 0.26635192055255175" stroke="#000000" stroke-width="2" fill="none"></path></g><g transform="translate(371.0217611171256 28.104746629913393) rotate(0 18 10.5)"><text x="18" y="15" font-family="Virgil" font-size="16px" fill="#000000" text-anchor="middle" style="white-space: pre;" direction="ltr">10:47</text></g><g transform="translate(534.8533650250401 30.407267092034203) rotate(0 16.964285714285325 7.738095238095411)"><path d="M0.2585847619920969 -1.8549538794904947 C12.03849820117471 -0.47629017184954264, 24.50398331088955 -1.5340162570355473, 35.902266552139736 0.23730975948274136 M0.18908641021698713 -0.6098924158141017 C8.669678365778479 -0.3523638556944211, 17.895726063222295 -0.08277481899131134, 33.58372393104128 -0.13355328422039747 M35.44381668979673 -1.1674239727047844 C33.20781046297368 2.940183237328127, 34.23528653741384 5.623775651966835, 32.49989153118814 16.668863882688026 M33.91472462958314 0.17259460169866714 C34.29902808414786 4.458232386913694, 34.08951093338532 9.29861485852792, 33.61859861267965 15.15934693898729 M34.70344888179443 15.5857349973885 C20.220828405282138 15.37820768282628, 7.9356204196145725 14.729115783431292, 0.7546248082071543 13.970307443734782 M33.31161701532892 16.46970884080656 C21.296168904252696 16.238361632612524, 8.101310812402545 14.776381379154502, 0.43868649285286665 15.311886976916867 M-0.19171450719503857 15.987118426599853 C0.26629351701454984 9.88658636453628, -0.3155342462760954 4.624431097015309, 1.1256880323136744 1.182245907395927 M0.48403194479068856 15.777435562230025 C0.019349658373921108 9.750392097658475, 0.4024472037507755 3.821713837761783, -0.7168904226827818 -0.25568855787805367" stroke="#000000" stroke-width="2" fill="none"></path></g><g transform="translate(537.3414602631356 32.16917185393697) rotate(0 11.463793682796677 5.014700940860507)"><path d="M0.08377918042242527 0.10481817089021206 L22.605514407019115 1.2162166889756918 L22.923380911211467 10.979642439734318 L1.0619758609682322 8.666186679255345" stroke="none" stroke-width="0" fill="#000"></path><path d="M-1.8549538794904947 -0.47871688567101955 C7.766138534745022 -0.5600904864118336, 14.617339210088938 1.944051499958253, 23.164897125075555 -0.8206000085920095 M-0.6098924158141017 -0.11680376250296831 C7.5804314695381585 0.27940885476043753, 15.664871756562782 -0.3882004494292445, 22.794034081372416 -0.7505826028063893 M22.171033987251775 -0.529994177756694 C22.63738344790236 3.773709977214703, 22.120464226671498 6.349827812095324, 23.70050373191721 10.100320724543723 M23.039437928928447 0.3115098439160706 C22.65224627000953 2.4702115282365718, 22.70933443944028 4.3880810635760295, 22.722255751644987 10.524944711083203 M23.03713188679049 9.852984614770987 C15.185315538261818 11.187932737974808, 6.6318447555290465 10.87285704246013, -1.5058830324560404 11.5495421961957 M23.921105730208552 10.154380248028913 C18.378211464506848 9.575450284703454, 11.53613526063376 10.32663561247178, -0.16430349927395582 10.935188428599515 M0.33110872828423843 10.123986179611055 C0.22655820141946567 7.517991908162918, 0.7336695148393516 6.301030811277698, 0.7661587873666502 0.8343263175619846 M0.19522298057967624 10.011889378223186 C0.12573928160325118 7.551857784421819, 0.12678451809869493 4.148219698969134, -0.16569990576568944 -0.05215054309907036" stroke="transparent" stroke-width="2" fill="none"></path></g><g><g transform="translate(222.8995768269806 71.66927331797092) rotate(0 13.722324038689749 -0.4984451485316299)"><path d="M1.1842170741409064 0.1423858556896449 C5.753571055196759 0.3441358122974635, 22.627331057007297 0.4761048469692468, 27.09785576865397 0.4901911530643701 M0.34679230872541655 -0.8284655154123903 C4.742891960815129 -0.9264290833845735, 21.372341591942 -1.7903633201494813, 25.891321302320286 -1.3750332403555512" stroke="#000000" stroke-width="1" fill="none"></path></g></g><g><g transform="translate(224.39639066632571 80.59038989215128) rotate(0 13.88717849730665 0.21885405840350813)"><path d="M0.817779854312539 -0.14865247942507276 C5.301019452624556 0.025728049501776568, 23.46550032254575 0.14472165368497367, 27.986381446126323 0.11316842101514335 M-0.21202445151284333 -1.2722989764623345 C4.05275076689252 -0.8020009216479957, 22.65054972188814 1.3642773100920023, 27.246322960465623 1.710007093269378" stroke="#000000" stroke-width="1" fill="none"></path></g></g><g><g transform="translate(224.04179698327698 89.47960356680892) rotate(0 14.302358547590302 0.551006424247646)"><path d="M-0.7175245609134435 1.171920147165656 C3.693046198897597 1.148797395452857, 22.10761824008344 -0.1812808845192194, 26.947639607194287 -0.1941386673599481 M1.106636315267533 0.7415742790885269 C5.870591554958907 0.9106798309274017, 24.849779546133117 1.4771234393306076, 29.322241656094267 1.2413637834973632" stroke="#000000" stroke-width="1" fill="none"></path></g></g><g transform="translate(412.2831133974423 71.75780464987258) rotate(0 34.5 10)"><text x="34.5" y="14" font-family="Virgil" font-size="16px" fill="#000000" text-anchor="middle" style="white-space: pre;" direction="ltr">Features</text></g><g transform="translate(509.4693397520359 72.82182631116837) rotate(0 24.5 10)"><text x="24.5" y="14" font-family="Virgil" font-size="16px" fill="#000000" text-anchor="middle" style="white-space: pre;" direction="ltr">Pricing</text></g><g transform="translate(638.7056931643829 10) rotate(0 84.5 12.5)"><text x="84.5" y="18" font-family="Virgil" font-size="20px" fill="#000000" text-anchor="middle" style="white-space: pre;" direction="ltr">Critical Nav links</text></g><g><g transform="translate(712.2114741057676 42.82554654926412) rotate(0 -61.85451598237614 19.150575094008616)"><path d="M-1.0143752183765173 -0.10616625286638737 C-5.3744391421875966 4.081419314291179, -6.980498933548915 17.571636301575637, -27.260545854882366 23.990550083867312 C-47.54059277621582 30.409463866158987, -106.71788908327028 35.62858065824848, -122.69465674637722 38.40731644088366" stroke="#000000" stroke-width="1.5" fill="none" stroke-dasharray="12 8"></path></g><g transform="translate(712.2114741057676 42.82554654926412) rotate(0 -61.85451598237614 19.150575094008616)"><path d="M-96.25524212863229 23.314467365515675 C-100.41142892666622 26.6248858354058, -109.20108796834455 28.797386441083606, -120.83769588909017 39.76485854404011" stroke="#000000" stroke-width="1.5" fill="none"></path></g><g transform="translate(712.2114741057676 42.82554654926412) rotate(0 -61.85451598237614 19.150575094008616)"><path d="M-93.58555233160155 43.66127937067927 C-98.10544768307216 42.71048665740926, -107.45125598890417 40.644343306350784, -120.83769588909017 39.76485854404011" stroke="#000000" stroke-width="1.5" fill="none"></path></g></g><g transform="translate(10 12.528897849461146) rotate(0 77 12.5)"><text x="77" y="18" font-family="Virgil" font-size="20px" fill="#000000" text-anchor="middle" style="white-space: pre;" direction="ltr">Non-critical Nav</text></g><g><g transform="translate(76.26653362957677 37.41610777375388) rotate(0 57.586277732488725 22.545488607161246)"><path d="M-1.0075390074402093 1.0845718536525963 C5.629669215226931 7.676314918201023, 21.217755349814464 32.75527872052678, 40.74902759645738 39.792868788172925 C60.280299843100295 46.83045885581907, 103.44681341743947 42.8189617567331, 116.1800944724173 43.310112259529454" stroke="#000000" stroke-width="1.5" fill="none" stroke-dasharray="12 8"></path></g><g transform="translate(76.26653362957677 37.41610777375388) rotate(0 57.586277732488725 22.545488607161246)"><path d="M90.00147746552851 53.72940074368441 C97.72984093770097 49.0350996271499, 110.56835714521709 46.57398607783381, 116.51593863713151 42.84378717950724" stroke="#000000" stroke-width="1.5" fill="none"></path></g><g transform="translate(76.26653362957677 37.41610777375388) rotate(0 57.586277732488725 22.545488607161246)"><path d="M89.60302292293657 33.2120608487729 C97.52310960890391 36.259182791253586, 110.51190222530687 41.536146813499755, 116.51593863713151 42.84378717950724" stroke="#000000" stroke-width="1.5" fill="none"></path></g></g><g transform="translate(271.0134211250315 157.66937606580302) rotate(0 126.00000000000045 45)"><text x="126" y="32" font-family="Virgil" font-size="36px" fill="#000000" text-anchor="middle" style="white-space: pre;" direction="ltr">Lorem Ipsum,</text><text x="126" y="77" font-family="Virgil" font-size="36px" fill="#000000" text-anchor="middle" style="white-space: pre;" direction="ltr">dolor sit amet</text></g><g><g transform="translate(97.76415649546561 188.06693169555672) rotate(0 73.29352606510702 10.847377893748046)"><path d="M-0.6904414270073175 0.5018769297748804 C8.678813580671248 3.7075761062436148, 30.425101959533574 17.190287559931363, 55.086424456905114 20.17830041313639 C79.74774695427665 23.16631326634142, 131.9851811282017 18.82417410706719, 147.2774935572219 18.42995404900505" stroke="#000000" stroke-width="1.5" fill="none" stroke-dasharray="12 8"></path></g><g transform="translate(97.76415649546561 188.06693169555672) rotate(0 73.29352606510702 10.847377893748046)"><path d="M120.47942493758826 30.94157727151745 C125.82451342753288 29.708343285789898, 132.76659731253127 26.57547227079466, 148.08436587106408 18.963415524749895" stroke="#000000" stroke-width="1.5" fill="none"></path></g><g transform="translate(97.76415649546561 188.06693169555672) rotate(0 73.29352606510702 10.847377893748046)"><path d="M119.43938503058078 10.446740863834872 C125.15986995986853 13.43953899431133, 132.316106244306 14.52671604020728, 148.08436587106408 18.963415524749895" stroke="#000000" stroke-width="1.5" fill="none"></path></g></g><g transform="translate(47.858928358371486 153.44600699659668) rotate(0 33 12.5)"><text x="33" y="18" font-family="Virgil" font-size="20px" fill="#000000" text-anchor="middle" style="white-space: pre;" direction="ltr">Tagline</text></g><g transform="translate(224.45032222498412 316.32074274667514) rotate(0 169.22325601855619 150.48922936893206)"><path d="M0 0 C0 0, 0 0, 0 0 M0 0 C0 0, 0 0, 0 0 M-1.0467401414783546 7.186768985589139 C1.8094388413609392 4.697866166607635, 3.2215414676670244 1.6861828965706156, 4.799014333220667 0.5602333340642266 M-0.5412153120757888 6.175809076850407 C1.2648906495107513 4.611508528372413, 2.360874654491064 3.886376415566583, 4.623208350645847 0.6296484649029785 M0.13082601661790472 12.08282675635773 C3.1728493465474603 9.641906753829254, 5.832942371212358 6.11690970086263, 9.435684880566729 -0.7565192659303783 M0.20626616786230678 12.054367474883376 C3.7159647409199796 7.163415282072913, 8.83389175592771 2.1044330519412027, 10.275203672748935 0.45509816138891 M-0.43645598837642474 19.993301962409788 C4.76132422671718 15.154880973623989, 6.99848846108248 10.86632549715953, 17.502594323366363 -1.2314514455455372 M-0.0845427066600184 19.199323695060485 C4.701518030143545 14.096670844981535, 7.708724446270381 9.731292597122712, 15.625166247136374 -0.562119143370075 M0.2628957649878476 24.201828915341853 C8.898293834926562 16.563473809289796, 15.252636134773816 9.592512973175548, 22.560977772155667 -1.2447384787559983 M1.2103442356175993 24.48695468408531 C7.484168578866855 14.683014349415549, 15.55478553727778 5.961448195397917, 21.096506797985995 -0.723132622970688 M0.6608733190735236 30.1564804723004 C7.190713140086309 19.737776403688052, 16.821316102146312 11.574030507616545, 26.06707149432263 1.5446786819037737 M0.7582402565096871 30.15591745334511 C6.661495351369244 22.8625156910213, 11.72973043716874 16.12830392153856, 27.072779034871967 0.05336853899180305 M-1.910133730722638 36.255318049156415 C8.800882830030428 25.29872988260381, 14.977269941443694 15.366763226010217, 29.89408973925451 -1.6983637529180164 M-1.1800898044463715 36.20568333082025 C11.188171743652216 22.31068941234164, 23.27296337876413 8.822720310129675, 31.512799013822175 -0.9829710972250219 M0.8764048359961265 43.05851243678086 C13.262985721547667 30.15947601963975, 25.321885158817253 12.896728537788789, 38.847651265376555 -0.19058187668207083 M-0.23157642021318736 41.695293956991065 C12.30816603216311 28.44233473766721, 26.241851468800316 14.157640098864238, 36.082201362402486 0.7771516620275101 M-1.5645172223449535 48.489972541713044 C14.40112742530413 33.56741532948913, 31.29232357223203 16.87704517910837, 43.97675157207601 1.3695792712598092 M-0.4102724632249064 49.03874002550624 C10.679275579692824 35.19342685172401, 23.233145985919595 23.6275716247501, 41.870661511640776 0.29627200200697246 M-0.07452940635861438 53.49187832460116 C14.744850546088333 38.440908721542115, 24.182385876368407 23.395680081107688, 49.387790667778134 1.777122347446923 M0.9438099975463601 53.75324422162335 C16.990666013210003 35.21550000468804, 33.655020989704 16.354477347580527, 47.61217346410292 0.9590837413620399 M1.0621432923803837 60.99985744198452 C14.394712596744895 44.798070278394654, 26.918860819768813 29.093571403243832, 51.55554530187017 0.22032106252747852 M-0.615022535333523 60.528187863991064 C17.48454409600552 40.75368191080176, 34.593733629744044 20.478524187971125, 53.4022720258168 -0.4339873096497051 M-1.226406405731204 65.59751818473408 C18.718515702766805 45.99866807643288, 42.488721352455386 20.670806352175646, 58.13719673277737 -0.7441031769592321 M0.42301821517282434 66.97339384308974 C17.30592235786224 46.04164638861534, 35.20201202327535 25.095342543974596, 58.91831057434828 0.40214329262040494 M1.2945548447033772 72.71807821872083 C20.79496598783293 45.03857659007528, 44.408574866347884 20.655088673566404, 63.28330295988698 1.7088420896349916 M1.0237752136027822 73.91450536189971 C14.360579427220165 58.57896523723478, 26.63008781596982 43.20852836459743, 63.136683290725244 0.23079198342994545 M0.26072392710936754 79.84599332548407 C13.429547093842217 63.188205247684145, 31.46895726274802 42.79632070750179, 70.45182649162426 1.6475970188494458 M0.10971902502221553 78.68836467656968 C16.84896369870364 59.389780900720254, 32.8744873814167 40.4157637434225, 68.55310292751356 0.36243383142758745 M-0.636325534125973 84.171490340672 C30.076888267609714 51.97107568178454, 58.80269519807564 20.463970910553968, 75.71910657737645 1.283872821332352 M0.6211110179590094 85.89129603485719 C28.08833635410014 53.03232303092674, 56.61394399732278 21.31575654024526, 74.89982304074111 -0.3517241031290723 M-0.8351154055774046 91.5657437958239 C19.57207662293325 66.28742844186552, 41.94995878511642 43.97985975599493, 78.59388697556881 1.947828403622978 M0.7362811324790286 90.44803231791094 C25.374093319132683 62.59580235031064, 51.62273196964635 30.870116886145922, 79.36591575797377 0.5491838734086087 M1.750650158151828 96.23540885681078 C30.655125016346958 62.19927281160465, 60.958392249372075 26.53167171242724, 85.32828818558858 0.9878937263695491 M-0.06720891688034669 98.35999797871128 C23.37736123833957 71.59901998695639, 45.461282235098956 44.04793926403771, 84.3144940102394 0.12925544629823094 M-1.1735923725415205 101.92425006450358 C30.14312698493083 72.26024565036514, 56.98107110565605 40.470456168534845, 91.731835215861 -1.254053553888653 M-0.5119927280817365 104.00068778273854 C25.785446213879332 75.1907277467055, 49.468216566759715 45.884604220075616, 89.50298930010388 0.12474693418845106 M1.8110570107677901 109.11477007544161 C25.537330673076262 81.08598064342611, 53.33650434185429 48.91722708809147, 94.48242981577337 -0.5428647265034101 M-0.020326298559275813 110.4110455486414 C33.750397735696 69.87476389375288, 68.38206404751642 30.007724928838257, 95.80037393359513 -0.062353352663137684 M0.49187505746701987 116.6827426002731 C30.863953643105596 79.3975079406247, 60.7668108282041 44.596505448273206, 101.94037824375087 -1.7749433849354332 M0.34707517771492036 115.04774708667746 C33.82515938423164 76.11082213292418, 68.52505091125892 35.20856604262062, 101.40743878827894 0.7046015293921286 M1.8385430259814086 120.87238904553732 C41.818545062532884 73.00569452407302, 83.856676119607 26.753032601321465, 105.4593634991808 -2.0784220685365185 M0.11131507830671694 121.85212684049537 C29.736421210578595 89.16582098469635, 58.01144841398834 55.62732811610897, 105.57401554518324 0.2904905156118289 M0.6580598867077114 128.95091145210523 C22.890646355145925 101.64957101624177, 49.24540385734028 71.85172296231252, 110.20047309048839 0.16201437923262318 M0.436478555253494 128.99846082557548 C36.91963786805303 84.61428035149157, 76.28078284313682 40.45855143716027, 110.8192544568739 -0.6426488253553728 M1.6890652350426905 134.41012123584784 C44.809462563732 80.71377261559338, 92.30275360650026 29.12912010015367, 117.78711223807039 -1.04033825075701 M-0.3697945519073613 133.18934536989815 C31.662460904238394 96.75858637358988, 62.23690166962078 60.99998161436538, 115.9927875503883 1.1126626469708967 M-0.3038377955884357 142.16806792830445 C45.28697241977601 85.84730930197202, 94.0401263239485 35.00207834674582, 120.39932678732356 -0.07257479263446953 M-0.35573680311000544 140.95107585461207 C25.643980024615665 110.23975904676084, 51.51694398969695 80.83814430178467, 121.7753015402638 -0.395275614429039 M0.12483066920161434 144.22357211512323 C26.59768243764108 116.33284956263772, 54.29644971119341 86.12456419426019, 128.86812612167313 1.479448035139562 M0.13571004517346807 145.38192965247478 C44.857512917612816 95.89811600701357, 89.61555142821143 43.64240523485023, 127.17911074156626 1.0180348965935124 M-0.07330828178492711 152.60722653064244 C39.563393823327125 105.39136864137603, 83.46906354691487 56.31561206781403, 133.24953785884324 -1.3633961673501303 M-0.2779953292358238 153.1359670284066 C31.77955268212509 115.15969859146136, 64.69746767106503 76.30725923959768, 131.70635150266972 0.3724369804782723 M0.11208199863441537 159.11461974027281 C43.80741842981667 108.40189649309252, 89.12773945486649 53.960079812876224, 136.2170566985314 -0.6294975433108577 M-0.14427747776310457 159.50339455558824 C54.2646127017453 98.32088626119399, 105.97876137485953 37.24558307407548, 138.02003941653328 0.7757151262358413 M-1.556350400212642 164.47210170027014 C41.4956840408137 116.87447925641169, 84.52361629229904 68.49488615230706, 144.49636911372602 0.33196077612709146 M-0.21018698699160737 165.20747409284002 C42.38154088060725 115.99243530832806, 83.17230532458339 66.45141153119226, 143.85131738967237 -0.6762470175030468 M1.4208883882717334 169.59176531710648 C54.55180088470929 106.1705408057482, 110.03772380805023 44.71196440066539, 149.06394105520477 -0.0750304648688695 M-0.5868734490179572 171.1396511064516 C55.08807263531639 106.6555180574411, 109.89847064384345 44.777271205558016, 148.1194721332131 -0.30257992360894326 M-0.5530702299150623 176.4421615279255 C30.089604807251835 138.2875047880621, 63.90524508679343 103.13707832587744, 154.89275056314463 -0.18227224145983456 M0.6813249108045336 175.84075680354033 C54.57653768888127 114.77835290366163, 108.40997349955327 53.9106477950738, 153.7427784500248 -0.9226374491246555 M-0.4072742600502241 181.26541076107426 C50.61458435971062 125.63352531456455, 98.74648566981055 67.73870462900332, 159.95407901644816 -0.34282198760334803 M0.3059009113167122 183.17474941445838 C54.342283881940524 121.35749968440653, 107.79751048128539 57.984034182344224, 159.34962201217095 0.28219494714180837 M0.9769099328660464 188.71201010992223 C44.90896774027978 136.87972988056563, 94.59396451031694 81.73777773194313, 164.11796493563298 -1.2784869583283016 M-0.1638346133158729 189.5357909624896 C52.318817499595575 128.2514601911068, 104.15011212947844 69.35463653236317, 164.2194389536412 0.6508987157854388 M0.053709381549388285 194.72890180913905 C69.08444741127788 119.64434388276356, 134.67339674376817 41.12065552734496, 168.8343547835799 0.8862241270111113 M-0.17235108530891485 194.58587249198652 C53.02904794788068 135.112333432632, 103.37210685476511 75.74173775914966, 169.9962242906382 0.7177265375847902 M-0.04162757631211018 201.3286047642953 C70.10829977130136 124.4584187466144, 138.06949610073985 48.32709639616287, 175.77498207103756 -0.26529774598247635 M-0.09931615500740369 200.913171363782 C51.894613713223876 139.6794868472521, 103.3497044830427 79.20545938756608, 175.63767410016126 -0.2454127151206851 M-1.0671498840485842 205.50742112326367 C48.00578081302807 152.71056299492096, 96.26227039388883 97.5778739883907, 180.26899523291837 -0.1186061575001005 M-0.27154806494465755 207.16303268891386 C52.65353240129256 148.0836891745206, 103.7868805639909 88.31699744575403, 180.7307382683463 0.928758584316682 M-0.5267211235807963 213.8045407514122 C54.87043217953401 148.45636957124955, 110.84229469588985 85.38193999743855, 186.0633144516036 -1.2087189458635326 M0.4664770814161331 213.4150333581873 C53.782447428178294 149.28683445577715, 110.3463739317174 84.63551333005468, 185.47965354996737 -0.9019386284754013 M0.38308387330682314 219.16755580055005 C43.39621693905169 167.23098465504705, 87.05969180166794 117.46040596184305, 192.14927853259292 1.3463569273839755 M-0.39685315785659436 219.05522691122158 C52.29664758722439 161.36455473506334, 104.01017171228614 101.39918448332205, 190.48803079249882 0.06691724620073211 M-0.23043685898881122 224.02290666429056 C44.867803645002866 172.19472634822637, 90.74041024145936 118.53336353402132, 195.28925728196975 -0.5833402446413786 M0.12466095105730496 225.66343940036867 C59.38487875828602 157.54852295307867, 118.68102980361734 89.51090720492468, 196.92976279331822 -0.8281587422718591 M-1.0454003460329382 230.83573304478446 C77.11647783164167 143.13832997685236, 153.74473318605553 55.64682216532651, 201.12927873100483 1.1052845677502783 M0.46278485960370075 231.88605673099278 C57.91623723413236 164.08318836120267, 115.71643215141583 97.69081628780492, 201.81983766451597 0.2656424836391057 M-0.4307994950849977 236.26250225844782 C72.50008648696296 155.69441462278317, 142.3987256438871 73.71247374124715, 205.79294200427464 -1.3007341664859358 M-0.35572770973136325 237.8473650637391 C40.45154352993103 190.69761744916255, 81.46802180609441 143.82604349859125, 207.27735810172263 -0.7031822557532232 M1.328696579227229 243.6557492714941 C61.31574995936746 171.49848428946814, 123.47031744084617 100.69820498126485, 212.62141959398738 0.1474540964023947 M0.2052164015291897 243.8553652094408 C66.3761128152006 170.5111434275597, 131.8709719196211 94.74355981731037, 212.60091204905981 -0.15262470244777282 M-0.21893258026579165 251.2613792714433 C43.72082450704078 199.23992327601258, 85.56821064824108 150.1086218912527, 217.47135402757735 0.6782135757723693 M0.2604556029229131 250.17225237341142 C57.44446512144728 180.29749264818048, 117.4546633867067 112.16940063843363, 217.80450489343357 -0.1251134779389953 M1.0116152677884682 255.3861258049466 C72.47561645435378 173.99261375585493, 142.46066454502855 91.05230109705987, 221.83685649492924 -0.26621764207958326 M-0.19751601135261704 256.41736478560387 C77.11839115771723 166.12927739172133, 154.30023288555532 76.593083377668, 222.87683500201416 0.018219454321946466 M-0.9430168525424265 262.6206971991695 C71.73846166182358 182.40105243374637, 142.6338584020515 101.73884621210317, 229.49607629469088 0.6647675111219018 M0.169768145476468 261.94571416923645 C66.39479123960847 182.51649701520972, 135.09108411431146 105.1611377224315, 228.49692475822815 0.23130851829627053 M-0.5239601241480053 268.99484823190954 C70.1313637787402 190.58349742639652, 138.32315053251992 111.81202758115329, 232.34645514471907 0.0350284593844368 M0.281501272935862 268.53318686726993 C85.91890625361074 166.1370894883697, 173.60461272771082 66.12961243037368, 232.56475971051282 -0.15215611091988618 M-0.5470619994813789 273.60892550149225 C48.83691640234464 215.94356510363912, 96.64789712320008 161.31725158695204, 238.5656762777183 1.4620523056036847 M-0.28650452139153004 273.9578095765888 C60.15208822069801 204.92412026740095, 119.03291484692726 136.02077003388013, 238.24158292210456 0.2065522747343879 M0.3594795116950703 281.3306953881103 C56.23055805153536 215.26334728816514, 111.85643344922133 152.2332948448403, 243.4251596043723 -0.9082303204664227 M0.18246564500446555 280.9725971659279 C96.71860633023142 171.58883751706486, 193.24198872865537 59.56784899716201, 243.32673470726454 -0.24890740977215856 M-0.4016892138185748 286.7305848259414 C89.41010581604003 183.77736537481536, 177.51263631599699 83.28054637429334, 247.92317793916504 0.642764499793063 M0.22605238462578936 286.2103009338466 C99.30308144063272 173.0801530550976, 198.41606619140538 59.713296643841744, 249.34772613081108 0.20828344508175917 M0.8503916783550359 292.0913684251787 C54.228197602662995 228.68966568956523, 107.83196944667932 165.96828439937156, 254.38888800297616 -0.8581576155940325 M0.3126989042286148 292.51730616869673 C91.06875593871911 186.64940575904293, 181.79046007446198 81.12269222332452, 254.07297700436692 -0.5388338829723937 M0.580034470911974 298.6485378467573 C63.61796014839213 224.7012462941931, 127.47976363946364 150.361210539562, 259.0831380657439 1.428357487566106 M0.3986209607260208 298.09502766060893 C52.741383449557496 237.2640121972483, 105.60058882150766 176.8290108597762, 259.2840677808651 -0.016019899221610012 M1.5699808139487788 301.67410532088945 C86.66107147711219 201.69235451223204, 172.52160717202963 104.08309208785684, 265.74415343198007 0.13890473011276447 M2.296916519910346 302.716975791698 C73.26646103468099 221.20355555318122, 144.60073689676463 139.80386891392448, 265.4640556015504 -0.14707754150517857 M6.4954244371682055 303.7846569855687 C89.89733183854338 209.52207890410548, 173.73114150236165 113.45811227019455, 271.0575295203973 1.267698355570872 M7.24310026067986 302.62751451662564 C66.49211944241998 235.06842234669816, 126.87161654541127 165.26721249985872, 269.95441091040465 0.03276980078699723 M12.21575556229077 301.73634543402676 C94.73544634145566 207.3465350310526, 176.53776476273882 113.16296610115481, 275.6944270236082 -0.9127780918329463 M13.135080942323459 303.0190993919275 C83.06188802708573 220.74229180750612, 154.2254047746947 138.36343605694307, 275.78280906306264 0.02528841239864346 M16.83325442860102 303.9362627356934 C69.02387429455543 241.2753465114702, 122.77739500281909 180.74977625100794, 281.3288724433975 0.922119794831244 M17.30587064260225 302.7658039891819 C75.51415882665387 233.76852669000672, 135.53234398515335 165.4823002538931, 280.4648769060355 0.5257341961581328 M23.295606753845625 302.3408222766074 C103.44964603674892 211.91707709745285, 183.57020259647655 119.72985751492637, 285.7589253600117 0.15331093910225874 M23.183501573989474 301.97596704032594 C116.79420719593837 194.23372283109853, 209.97764989972902 88.49959853955995, 286.0400020205465 0.2328364152527178 M28.533268702309194 302.7508558011989 C107.59893488126656 212.99436542066505, 183.97487605876887 122.55453775437144, 291.25224820023556 0.8636138229099755 M28.528006451746293 302.96299887943826 C92.2703158615864 226.99303392197768, 157.85643550175243 151.87460750827918, 291.2629434906068 -0.35565986498928603 M33.26282591673837 303.4850531705065 C115.11526421858471 208.79243272269258, 193.72740893460852 116.55031511736385, 297.4010492693156 -0.09913055520670515 M33.76944572584592 301.9655706009559 C98.64565058225772 228.91279159007794, 163.53472474109745 153.72721120203008, 297.1171231349396 0.12150898111945885 M37.903724886417784 303.07717140396016 C95.19081004519079 237.69051007165461, 152.21986525044835 173.0203435828774, 302.68828611903655 0.22462236168206645 M39.284043149049545 302.5472589014573 C127.94587246536604 199.76110203900566, 215.9560759339132 99.08104574391852, 302.3959194750561 -0.22459321859275982 M45.60226557909403 301.5473624375989 C128.49664280535654 206.02459735808563, 213.480388891727 108.72756851437218, 308.6415525796449 -0.2513899528848096 M44.69305780883032 302.7971576378798 C133.66774193877228 199.07384539520615, 223.14371903005977 96.95088650826037, 308.0860645671794 -0.6892332759386046 M49.10917760905177 303.5798045658524 C127.23939634633352 214.09977451114437, 203.8627216309072 124.97378007151865, 312.36012692792536 0.1678663330225167 M49.528602895449474 303.08005066930156 C111.53431908474087 231.70933528117155, 172.1368339053264 162.63420775027348, 312.94893797032074 0.17206179941021177 M54.14171206903759 301.71571979975965 C110.64409327564023 240.41807562896645, 167.29108667051278 176.1326584304683, 317.44822531912456 0.3207883679429453 M54.79230653388015 302.2761786151601 C146.31611187337947 198.05653956430956, 237.72396469061331 92.3222695783629, 317.90396357820333 0.21832435814102702 M59.4818512983361 302.12889330875055 C142.13466587815847 209.04871159347522, 223.41982953322264 117.01506045871434, 324.28226115502713 0.4966624588063262 M60.23144735188354 303.27162289703364 C129.98383509045098 219.27620499687836, 201.2962681827351 137.81125618760447, 322.7397979873383 -0.22152264691787127 M66.779667914694 303.29911317886376 C126.87304768632626 233.46793153519354, 186.24883749246473 164.4644832746188, 329.6451545158796 0.31730862915155966 M65.89761531193288 302.41870609685935 C129.84482258648228 227.31535042758952, 195.46190253950363 150.97401889156657, 329.3678329289489 -0.4140573025791459 M69.69068978239586 303.7093794545294 C165.28796432841662 192.33706651339426, 261.81871219400267 82.46723811668188, 332.8121131284667 0.7848176609085237 M70.55274167928933 302.9356367987158 C144.5634676604878 216.60069884394693, 220.16225767148146 128.91539102433075, 334.0138060370463 0.05460610648551928 M77.24038413658658 303.1196742531126 C153.5104037788913 211.87090837455278, 231.94346778803148 122.3572294269037, 339.0490436660689 0.6588614936848097 M76.61800450138233 302.1065833087612 C168.88433466582723 194.51859914894692, 263.4237984588006 85.73446575189912, 338.85441019800123 -0.03315559938680551 M80.32346055832015 303.49444779296385 C180.456057377786 190.20008409410104, 278.42889756757666 77.10036904703475, 338.2035246777036 6.018827600426059 M81.80786876204711 302.41823629713866 C158.35369643876254 211.79510215638115, 237.15595628529326 121.40954932827181, 338.18445948301843 6.680874149687203 M85.84893970178057 301.85248660961184 C171.1816417426753 204.4782693499972, 257.093596868218 108.3177549752579, 338.79319606403834 12.408090469953645 M86.78400715311241 302.92555784952987 C147.01334655643072 232.90197755456919, 206.6690486848417 164.94489460455065, 339.1907151862915 12.580296753183712 M93.23983975054364 303.7635617099765 C151.5986619300909 237.13102569830568, 207.88778093147013 169.47565314022378, 338.2794015408793 19.563844548154584 M92.35320834195262 302.0222976132585 C152.6471957578978 234.17187854968327, 212.48087600931072 165.25044601940172, 338.6028748552138 18.404238388634326 M96.61881599350092 302.3696391409589 C178.2876454597256 211.37646015414825, 258.6112975072017 118.87549387418348, 338.7282173256443 23.908016846681807 M97.17926497487522 303.369279860059 C192.69852646378865 193.868460204298, 287.9182218785945 84.80338684465265, 338.6472906157091 25.054737562618236 M103.00507670526251 303.67566504352203 C150.27290417420178 245.11057452405765, 201.76672046710564 187.4668725503963, 339.28242959355237 30.221854523695306 M102.66542243874272 302.73253386653425 C156.05290881137412 239.89503613127113, 209.27985529363082 179.82199988000224, 339.2567610475897 31.149460361050842 M107.55806951409973 303.9409076638051 C164.54083537456214 236.03777461170884, 222.9221772276811 171.21000886912717, 339.4763957135432 38.51432288746742 M107.36466141914607 302.5508505558488 C194.70026249113468 205.07718630238492, 281.4814370227708 105.54396807751372, 339.1223149627153 36.859571675203775 M112.36889388522098 302.65391211601246 C187.72577360234695 217.77792337346852, 263.31898959158974 132.6689254358072, 339.7708433250295 43.9601820478978 M113.83873702065476 303.0312642399004 C172.25177587547367 234.7270166585083, 230.2065188407808 166.66338390949548, 339.6193596526022 42.67110471315254 M119.03262551458204 301.80760504229755 C190.9244890069392 218.9940293137231, 262.79815899057087 135.11966874246534, 338.38922090228726 48.73578254694443 M117.80454471452057 302.8867868750482 C182.05233993462969 231.98061286079104, 244.52640793303632 160.4501975094989, 338.06388655402964 49.66533700166651 M124.52965257816317 301.81691162486015 C177.25236259570136 243.5244553874766, 228.7936665431746 184.59433191117554, 338.67307844961726 55.13426601661174 M124.26286004342603 303.1599561287917 C198.8324184979979 214.37844524880032, 274.31299469017154 127.8930538750826, 338.59172185020736 55.456847903655294 M129.2946622187951 302.74879700897833 C173.558068929231 251.57696989822526, 220.00321391611362 199.2497689963049, 339.9230569881704 62.758371601982674 M128.54889428018544 302.6245723809275 C183.42564377975933 241.19049139875432, 237.47427800228783 178.28073882490432, 339.25660062947713 60.913245119325715 M135.99225619958366 302.8989865124519 C199.41012144222663 226.99766923235637, 268.1552135097814 151.18595826545277, 339.03332289863823 69.0429332849505 M134.05437723348103 301.94530497251196 C178.98183147778 254.01256364559288, 221.17705430155462 205.20188873890274, 338.7462821154293 67.77666460821317 M138.43384227698306 302.72691349875936 C179.8860479242551 255.03918421771203, 222.36383816080505 205.99829807673717, 338.32359344799903 73.66185698593175 M139.86527369062793 302.9570159501711 C217.12611590399575 211.5912009382141, 295.5052026648626 121.60454767361742, 338.99341658776376 73.25529016814718 M145.5658587541366 303.8879098336383 C220.65448517049484 213.40720689479693, 299.36777804482665 126.77885228837815, 338.2311693656641 78.77281448212402 M144.69456091575645 301.71057738629275 C208.18226855851526 230.51864412820532, 271.6456775213218 157.19159096963466, 338.68951390967624 79.27580249287655 M150.27032306439014 304.2841269215527 C225.70333408354543 217.84045885243304, 298.6393727593914 131.3353980496579, 340.43478328358 85.94378250714124 M150.0189293578355 303.34404262196375 C189.37301162590236 256.22184460446397, 230.79197944678873 210.30195894169267, 339.61032666509567 85.2048996505967 M156.44846503481713 302.8984522613874 C225.36991556082762 219.35388497017703, 297.0662378147228 135.84412757580026, 339.4488577740031 90.84377760739356 M155.42868829503888 302.03142242441663 C209.7188797169862 239.38214412570858, 264.5530291504334 177.9451916413263, 339.4697404890405 92.40450717666332 M162.09220448619791 303.7844291027312 C221.21202148658782 232.1781014036336, 280.73114381710815 164.30121637473485, 337.7900925871929 98.2077081773499 M160.3711561635128 303.5145679694353 C198.769559181822 258.82450407580535, 236.2716491541435 216.52713717021913, 338.3032003842979 98.10471663432354 M165.87538889479913 303.03005234955674 C213.65053107714292 247.78835021740394, 261.96905761111947 193.0983796669409, 338.26797392214155 103.60089659430402 M166.8111161396632 303.1644283837831 C220.66039889615453 239.44906653885906, 274.28423890880924 177.36899115818923, 339.3044275367007 103.88825457912911 M171.49572295186456 301.57234259521346 C235.0005345951924 228.49898008517295, 302.1968022081982 151.0833764455861, 337.2149547757572 110.18312856156643 M171.92478807463684 302.7122839363071 C220.11390455597115 245.05767084942642, 268.4712749039543 188.35051543572, 339.4157075555013 111.08475958900912 M175.54432654975636 301.74148568950375 C235.52569810118254 234.8378428704949, 292.5402193768332 169.07175185299113, 338.6089727710659 114.79830041390034 M176.83750833671445 302.06761834254144 C219.30459858048025 252.72103105108081, 261.2370244600119 204.66425787212378, 339.69041325458574 115.29191080107964 M181.53157664378088 301.08262798671456 C243.01292208732482 232.27129128630924, 302.5260859277174 164.27715200806017, 337.60807661903806 122.86785216555376 M182.71744758251154 302.1376586533643 C234.5860303062263 242.91957766472038, 288.3174986371323 180.93219100631242, 338.89640052367514 123.07482890030097 M187.31231058357977 301.7384204736481 C240.25981529865481 240.4674367002858, 292.73073615650253 179.06347211722877, 338.25925968488536 127.38691396824174 M188.1533065996689 302.88991311268103 C219.79528203632768 264.1249223886308, 251.6134119543751 227.5252426845487, 339.3842103439263 128.6967565329617 M193.0059121463708 304.13302039984194 C237.7330504298635 250.22861681353018, 283.77846429624896 200.56414921175212, 340.0867888467717 133.59345729160685 M193.36173983984688 302.6844185831314 C231.03110595080747 258.793718441575, 270.6302041656737 213.28964453851015, 338.74832605637295 133.6899003533798 M197.93654902677432 303.11008281791067 C246.82932960844695 247.44466481576362, 290.7127280277362 194.7578778217983, 339.305735474847 142.00713220036442 M199.19934405655843 301.5333687269274 C247.1918963626968 244.5682519801306, 296.6167645900048 188.8106926213386, 339.2841392876447 140.9844741562826 M202.291374706558 301.723584494703 C236.49393988217196 264.92625054625006, 272.7483473470053 223.8395806352824, 338.70500445119455 145.2099633795206 M203.04297896810272 302.2029047193827 C247.9564325758602 251.8551637055862, 292.2239019969231 200.44906229870736, 339.28560128989864 146.90965726467627 M206.43263700009663 301.67835193724864 C256.5521887338236 248.07810823534302, 307.8214059471245 190.06377585338072, 339.19544130485593 152.3654487542242 M209.26718476658095 302.13358790186726 C238.09657741065874 268.7543575039728, 267.9591621454066 231.94492133881562, 339.5074710623929 152.35387482022793 M213.41063905545334 303.57482251817385 C251.62491411687358 260.31770919168787, 290.9665824355907 218.2730563406743, 338.86909558623654 158.51140356435656 M213.8581074936391 303.3238021825815 C242.7908344277058 269.6857626822154, 270.3501424076909 236.3314907960587, 339.14363345596564 158.72891325782268 M220.0856799974689 302.61548899218815 C255.0900279296782 261.12321106818627, 289.80265264443113 219.68642903461256, 338.32833503491327 165.25887094697612 M218.0553718188429 303.6093985364996 C260.5576251378498 256.4253559484429, 301.25743492315144 209.32761576152734, 339.09275623808696 164.63476934450375 M226.37980220053072 300.9476094449396 C265.579838842458 254.86047388802194, 308.8179265171747 203.81840374940984, 337.1307315343115 170.92043168362218 M224.7152547357204 301.57693558637897 C252.18412056237307 272.5599407514376, 277.9492042063506 244.09009359957525, 338.44137247382287 170.86922283641982 M227.95995254806388 304.5243896579675 C267.5551303168649 255.46846649841785, 307.00079627101223 210.11735487115578, 338.3897337088183 178.01443760994292 M229.49460180933733 303.5788805883683 C263.6844777686207 261.3626864005108, 299.26219272953523 221.94669310011525, 338.543806031701 177.23953548132843 M233.5489546644557 302.0048064669202 C257.1026944112144 277.52277101582314, 279.53679182981904 251.23503436025618, 337.5886946918591 182.24018825747763 M235.56804940822158 301.72718279022524 C256.41700538405587 276.8842955916253, 277.926281060507 251.6683707464477, 338.24244935178746 183.63137766037826 M241.73953668313146 301.72878440333676 C274.02986945443746 265.2172030857701, 306.6518209940313 228.03438246805578, 339.2357853288305 188.13246379209733 M240.84830247243912 302.96220007309836 C272.6564557344387 265.7896473643716, 308.0285168482483 226.40935358894546, 337.9289266486195 188.7571113265497 M246.30530347847838 302.61701905286554 C266.0865333757199 280.4247516886657, 287.34296489078804 257.2671030758396, 340.9583170901293 194.26315375467294 M246.70335674551774 303.0462723097453 C265.98227212358836 279.14118383354025, 288.04302625187415 253.77347840500636, 338.04466682423447 195.45116874532306 M249.01476443392173 303.1461536970458 C270.25447752117293 279.7991408066882, 289.0792774874186 257.4363577528521, 339.59706498418086 200.44288580174378 M251.17677654252336 303.6326480063147 C281.0499068738615 268.22098515572304, 312.49391061689334 232.73988858406324, 338.5814763811984 200.965431235347 M256.9423056738487 304.24860267152576 C286.67735824630716 269.0223336413914, 317.98200301589844 232.49984411946224, 337.86118076037224 205.37555864395807 M255.70491698198379 302.25905766056417 C286.26665740121405 268.4419796781452, 315.46935268902286 234.92439605575478, 340.14270262553896 206.71751210687916 M263.28221783168465 302.28772800784475 C288.0598389556906 270.34935749074117, 314.1810865772223 236.86218895162227, 339.1422206771289 213.63351868785512 M262.337201753965 303.4166404036424 C291.1625583121217 267.8277364504853, 321.61352905224936 234.99992594009228, 338.1635114348222 214.35968330356818 M268.6596682818167 303.95766279165093 C291.815628891457 276.54609681453155, 316.32202795104877 246.37418327646088, 338.1690587048473 221.31209297430587 M266.4533453519948 302.543517358307 C284.0459604317011 283.26112584795845, 300.6626179937855 264.6085165645327, 337.97205046108536 219.5271583408944 M273.94472890767014 303.2584878044835 C293.71042597803995 276.23747630107965, 313.84989612294885 253.3641276330273, 339.10220943892443 227.23121791918126 M271.983630841139 303.0937182807064 C292.93684412004166 280.92310184168883, 311.0402164079294 257.6630185867027, 338.29002204386586 226.13347104683814 M277.56334833363235 300.39605488199084 C299.7466587490955 278.0605201868261, 322.04854893716254 253.0569221737147, 339.62815101278557 234.1370680540207 M278.1261320899257 302.5307549185985 C298.36653677011725 278.78469695028286, 318.832855265994 254.32038257001994, 339.7332561232297 231.66585430254815 M284.3113796931284 302.75716355571217 C302.94218827230003 279.7681032665282, 327.8344495863363 253.6152196503312, 339.61423830081776 236.3565889644723 M282.56699153842055 303.39654765313185 C294.63430175279996 288.3872201792513, 306.54114131222957 274.4715714439479, 338.87287344270453 237.933522980782 M286.66555286054563 303.8093844112956 C308.37130046866366 279.4755594003989, 326.26539684167244 261.89317371188145, 337.92273068644647 244.77267393207535 M288.1976424301515 303.3049988570639 C303.96222058137965 285.0926346092563, 317.37927307591485 267.57002977506653, 339.45556331735645 244.13660058768824 M293.59750221930926 304.0762357302806 C307.0791760555293 289.6800185462092, 319.6632652840583 272.36655678426087, 337.06570526506823 250.4786968727009 M294.33508658018445 302.0109195365435 C306.1283480633688 288.2120745817006, 319.8218293538079 272.8816588737831, 338.4647468367226 251.61440220124737 M299.8847388938066 302.03700684831523 C309.6549979641689 290.25150734584855, 319.7954576534963 279.72477668098475, 339.29937975708003 257.9801410772199 M299.4391166070473 301.4036026893281 C312.74465383978094 286.0532433336638, 327.2887503498256 268.94407494254585, 338.6211497778406 257.1408132119397 M302.9246785174628 303.10193479693885 C313.3521979188848 289.5593763009271, 326.6378621739513 276.7090548635649, 340.71843542090687 264.39622795217156 M304.3325937008058 302.5757499465665 C314.9764690452301 288.4967578816776, 326.95630388914833 276.15019860156127, 337.8833755182761 263.2196680634138 M308.04561346466517 302.5120276617997 C320.43244657738757 287.9207219038742, 331.569309795257 273.4847085309555, 337.91093025593614 269.11444995820426 M308.9186698549879 301.8170449310162 C319.8413158250914 290.9465502080798, 330.59618382943796 278.31793762749686, 338.5090682390571 267.83303319092744 M313.320740618839 302.314241224437 C322.8881866635877 296.0046173406626, 330.4461814540617 287.33962955380696, 338.77232677059317 272.76574725185714 M315.4010656346596 301.68307989882584 C324.3050430324041 290.9565920941532, 333.66338301187903 281.33378513283543, 339.27519069274956 274.5101336631291 M318.22307457538096 303.01601190072176 C328.2814029116732 294.07809075554525, 332.58934332663785 287.6020814973494, 337.1604051852745 282.8790406240012 M320.34523337935804 303.7436386779758 C327.1348365916692 295.3753226683492, 333.10594700904585 286.9936924934796, 338.5391874063906 282.07563612049927 M323.71977055468784 300.786885481525 C328.2237871499186 296.9002636234379, 334.05602659271835 293.33807391273825, 338.98958634537706 285.0828602405075 M325.17893011612074 301.87807540894653 C329.8210704798034 297.9865508534576, 334.46926899638913 292.28372570094143, 339.73955759451786 286.94502751601823 M330.3212050120407 302.7689308003481 C332.7114917450221 301.4138288640576, 335.0448282345552 297.60528853804743, 338.4794983513892 292.6054407415285 M329.8833280643043 302.71078661814846 C333.385500798135 299.9367235268374, 335.43844830938446 296.3657775028906, 338.2007610860054 292.67890339892614 M336.15071861064155 302.9791053183568 C336.8962546055425 301.4183982378072, 337.8741945322226 299.89950739644206, 338.88008267441825 299.21133798000136 M335.6855659914678 302.59702518225697 C337.02991394124655 301.54674801824234, 338.10530172693433 300.0878010734625, 339.2885939947801 298.9612831677097" stroke="#ced4da" stroke-width="0.5" fill="none"></path><path d="M1.025000303077548 -1.0210200086860572 C126.4593460380801 -2.623258486183465, 252.82690366675521 -1.1903732071732434, 338.99323134445416 -0.3312612150753279 M338.1721258170044 1.1316216946948554 C338.36463237530916 115.18113698394362, 339.570159578534 233.03264806216058, 338.09310316323496 301.0356634589555 M339.64307271528855 301.8654367316296 C269.1770781808705 301.3424798661518, 202.02252009281725 300.8744205962091, -0.6541915114751535 301.24536844070303 M-1.2879338111639067 302.0028160424876 C-0.3475345164388284 203.99503535089872, -1.3291802275160087 106.4360773792282, 1.0358268576151337 -1.4583501011319009" stroke="#000000" stroke-width="1.5" fill="none" stroke-dasharray="12 8"></path></g><g><g transform="translate(383.57277423868345 655.6533428680344) rotate(0 7.73767115987539 9.116186729986197)"><path d="M-0.19015785120427608 0.8903645183891056 C2.7125150053596676 3.68892221711576, 14.105995769250482 13.907269993051887, 17.22447177217673 16.93950574658811 M-1.7491294524259866 0.3122019452042877 C0.9760299615024206 3.209370183963329, 12.731047661557136 15.087163527626544, 16.058901567825632 17.920171514768153" stroke="#495057" stroke-width="2" fill="none"></path></g></g><g><g transform="translate(399.95217351052906 672.0006767575975) rotate(0 7.898041413165629 -7.544459703192132)"><path d="M0.7692286636680363 1.036823919788003 C3.2328757788985962 -1.7929252233356239, 11.55320261977613 -13.454582973942163, 13.93329146169126 -16.125743326172234 M-0.28606501724571 0.535552532337606 C2.609962849356234 -2.262947162725031, 13.649951649643482 -12.812162247039378, 16.08214784357697 -15.17933332119137" stroke="#495057" stroke-width="2" fill="none"></path></g></g><g transform="translate(634.7849188062419 286.95155461378) rotate(0 41.5 20)"><text x="41.5" y="14" font-family="Virgil" font-size="16px" fill="#000000" text-anchor="middle" style="white-space: pre;" direction="ltr">Product</text><text x="41.5" y="34" font-family="Virgil" font-size="16px" fill="#000000" text-anchor="middle" style="white-space: pre;" direction="ltr">screenshot</text></g><g><g transform="translate(669.3294416556828 338.9088798825975) rotate(0 -71.26604767116078 70.45597479527277)"><path d="M0.7478593502193689 -0.8813055608421564 C-1.5501979921680078 16.603909571069604, 10.07321646493292 81.78597181809128, -14.062084938613406 105.5650652701296 C-38.19738634215973 129.34415872216792, -122.35689467903188 135.91385814925817, -144.0639490710586 141.79325515138774" stroke="#000000" stroke-width="1.5" fill="none" stroke-dasharray="12 8"></path></g><g transform="translate(669.3294416556828 338.9088798825975) rotate(0 -71.26604767116078 70.45597479527277)"><path d="M-119.59118393890255 128.22442891314677 C-125.25244645758644 129.9035899960338, -132.74272260136337 133.67938529968947, -145.9713487608373 141.7028298444566" stroke="#000000" stroke-width="1.5" fill="none"></path></g><g transform="translate(669.3294416556828 338.9088798825975) rotate(0 -71.26604767116078 70.45597479527277)"><path d="M-115.97509170954999 148.42452493704366 C-122.74874510038585 144.52699262832866, -131.24135955592405 142.70355847050757, -145.9713487608373 141.7028298444566" stroke="#000000" stroke-width="1.5" fill="none"></path></g></g><g transform="translate(52.60195509654477 461.1494712804469) rotate(0 46.5 25)"><text x="46.5" y="18" font-family="Virgil" font-size="20px" fill="#000000" text-anchor="middle" style="white-space: pre;" direction="ltr">Invitation</text><text x="46.5" y="43" font-family="Virgil" font-size="20px" fill="#000000" text-anchor="middle" style="white-space: pre;" direction="ltr">to scroll</text></g><g><g transform="translate(108.46855455891637 522.6204054202319) rotate(0 127.36507475970211 71.03200849219758)"><path d="M-1.128410968557 0.8741367850452659 C6.506430864463528 20.522147188454493, 3.281872612772773 94.49079552860964, 46.11303452219236 117.87675276432708 C88.94419643161194 141.2627100000445, 221.06046196393342 137.60448791482838, 255.8585604879605 141.1898801993499" stroke="#000000" stroke-width="1.5" fill="none" stroke-dasharray="12 8"></path></g><g transform="translate(108.46855455891637 522.6204054202319) rotate(0 127.36507475970211 71.03200849219758)"><path d="M228.72075139326648 152.02543160797546 C237.94025194430418 148.51061051969876, 247.51876627187784 143.96355938324527, 254.50578319128326 141.27699229269422" stroke="#000000" stroke-width="1.5" fill="none"></path></g><g transform="translate(108.46855455891637 522.6204054202319) rotate(0 127.36507475970211 71.03200849219758)"><path d="M229.57779370339966 131.5221274629241 C238.51653862192674 134.66962737272516, 247.81622969465124 136.79295636721, 254.50578319128326 141.27699229269422" stroke="#000000" stroke-width="1.5" fill="none"></path></g></g></svg>
