<svg xmlns="http://www.w3.org/2000/svg" width="320" height="320" baseProfile="tiny" version="1.2"><path fill="#fff" d="M159.997 0C71.645 0 0 71.632 0 159.997 0 230.69 45.843 290.664 109.417 311.82c7.996 1.479 10.931-3.472 10.931-7.697 0-3.816-.149-16.419-.216-29.788-44.512 9.678-53.906-18.878-53.906-18.878-7.278-18.495-17.764-23.41-17.764-23.41-14.517-9.932 1.094-9.728 1.094-9.728 16.066 1.129 24.526 16.487 24.526 16.487 14.27 24.461 37.429 17.389 46.559 13.302 1.436-10.344 5.583-17.399 10.158-21.394-35.536-4.047-72.895-17.768-72.895-79.074 0-17.466 6.251-31.741 16.485-42.945-1.662-4.031-7.138-20.303 1.549-42.341 0 0 13.437-4.302 44.011 16.4 12.761-3.546 26.449-5.323 40.046-5.383 13.596.06 27.294 1.836 40.083 5.383 30.539-20.702 43.956-16.4 43.956-16.4 8.707 22.038 3.229 38.311 1.567 42.341 10.258 11.204 16.465 25.477 16.465 42.945 0 61.452-37.43 74.985-73.056 78.945 5.739 4.964 10.854 14.701 10.854 29.629 0 21.407-.188 38.638-.188 43.908 0 4.256 2.88 9.246 10.991 7.676 63.537-21.182 109.322-81.133 109.322-151.801C319.993 71.632 248.358 0 159.997 0"/></svg>
