<svg xmlns="http://www.w3.org/2000/svg" width="320" height="320" baseProfile="tiny" version="1.2"><path fill="#fff" d="M160.006 0C71.637 0 0 71.636 0 160.005S71.637 320.01 160.006 320.01s160.007-71.637 160.007-160.005C320.013 71.636 248.374 0 160.006 0zm-42.69 237.36H82.187V123.862h35.13l-.001 113.498zM99.584 108.999c-11.475 0-20.774-9.376-20.774-20.942s9.301-20.943 20.774-20.943c11.471 0 20.772 9.376 20.772 20.943 0 11.567-9.3 20.942-20.772 20.942zM248.969 237.36h-34.96v-59.576c0-16.341-6.207-25.462-19.128-25.462-14.062 0-21.407 9.5-21.407 25.462v59.576h-33.695V123.862h33.695v15.287S183.61 120.4 207.676 120.4s41.295 14.696 41.295 45.095l-.002 71.865z"/></svg>
