<svg xmlns="https://www.w3.org/2000/svg" width="320" height="320" baseProfile="tiny" version="1.2"><path fill="#fff" d="M159.992 0C71.631 0 0 71.631 0 159.992c0 88.36 71.631 159.992 159.992 159.992 88.36 0 159.992-71.632 159.992-159.992C319.984 71.631 248.354 0 159.992 0zm90.74 118.458c.088 1.806.129 3.618.129 5.444 0 55.616-42.338 119.75-119.752 119.75-23.77 0-45.89-6.973-64.519-18.918 3.294.396 6.65.599 10.046.599 19.713 0 37.863-6.729 52.269-18.022-18.413-.344-33.956-12.512-39.312-29.226 2.572.482 5.207.74 7.923.74 3.84 0 7.553-.508 11.089-1.476-19.255-3.868-33.762-20.873-33.762-41.268v-.532a41.915 41.915 0 0 0 19.067 5.263c-11.291-7.547-18.723-20.429-18.723-35.029a41.886 41.886 0 0 1 5.7-21.162c20.758 25.461 51.771 42.217 86.75 43.975a42.47 42.47 0 0 1-1.084-9.594c0-23.251 18.845-42.089 42.082-42.089A42.03 42.03 0 0 1 239.358 90.2a84.106 84.106 0 0 0 26.732-10.215c-3.146 9.823-9.81 18.077-18.507 23.285a84.092 84.092 0 0 0 24.175-6.63 85.625 85.625 0 0 1-21.026 21.818z"/></svg>
