<svg version="1.1" xmlns="http://www.w3.org/2000/svg" viewBox="0 0 532.6681986988553 184.59111744790937" width="1065.3363973977107" height="369.18223489581874"><!--svg-source:excalidraw--><defs><style class="style-fonts">@font-face {
        font-family: "Virgil";
        src: url("https://excalidraw.com/Virgil.woff2");
      }
      @font-face {
        font-family: "Cascadia";
        src: url("https://excalidraw.com/Cascadia.woff2");
      }</style></defs><g stroke-opacity="0.7" fill-opacity="0.7" stroke-linecap="round" transform="translate(10 11.572836264927446) rotate(0 60.77812374345956 44.09298695839243)"><path d="M22.05 0 M22.05 0 C41.17 0.7, 63.7 0.58, 99.51 0 M22.05 0 C53.93 0.13, 84.59 0.07, 99.51 0 M99.51 0 C116.09 0.15, 120.53 8.19, 121.56 22.05 M99.51 0 C114.29 1.36, 120.88 6.14, 121.56 22.05 M121.56 22.05 C122.08 34.96, 119.68 47.94, 121.56 66.14 M121.56 22.05 C120.47 33.43, 120.87 46.22, 121.56 66.14 M121.56 66.14 C123.21 82.34, 112.59 86.66, 99.51 88.19 M121.56 66.14 C123.01 82.41, 112.72 88.45, 99.51 88.19 M99.51 88.19 C83.22 89.04, 65.13 87.96, 22.05 88.19 M99.51 88.19 C78.72 88.37, 58.61 88.53, 22.05 88.19 M22.05 88.19 C8.19 88.18, -0.51 80.51, 0 66.14 M22.05 88.19 C6.59 87.57, -1.9 81.2, 0 66.14 M0 66.14 C-1.7 53.15, -1.89 41.36, 0 22.05 M0 66.14 C-0.35 55.28, 0.01 43.54, 0 22.05 M0 22.05 C-1.29 6.33, 8.4 -0.73, 22.05 0 M0 22.05 C1.89 5.82, 6.64 -0.44, 22.05 0" stroke="#1e1e1e" stroke-width="1" fill="none"/></g><g stroke-opacity="0.7" fill-opacity="0.7" transform="translate(29.18926133398554 25.499168763756984) rotate(0 17.433332443237305 12.5)"><text x="17.433332443237305" y="0" font-family="Virgil, Segoe UI Emoji" font-size="20px" fill="#343a40" text-anchor="middle" style="white-space: pre;" direction="ltr" dominant-baseline="text-before-edge">key:</text></g><g stroke-opacity="0.7" fill-opacity="0.7" transform="translate(30.71442130083699 58.83767393347375) rotate(0 16.950000762939453 12.5)"><text x="16.950000762939453" y="0" font-family="Virgil, Segoe UI Emoji" font-size="20px" fill="#343a40" text-anchor="middle" style="white-space: pre;" direction="ltr" dominant-baseline="text-before-edge">val:</text></g><g transform="translate(77.09354882141133 25.83422868361646) rotate(0 15.933333396911621 12.5)"><text x="0" y="0" font-family="Virgil, Segoe UI Emoji" font-size="20px" fill="#1971c2" text-anchor="start" style="white-space: pre;" direction="ltr" dominant-baseline="text-before-edge">foo</text></g><g transform="translate(79.30771928006891 59.17273385333323) rotate(0 16.049999237060547 12.5)"><text x="16.049999237060547" y="0" font-family="Virgil, Segoe UI Emoji" font-size="20px" fill="#c2255c" text-anchor="middle" style="white-space: pre;" direction="ltr" dominant-baseline="text-before-edge">bar</text></g><g stroke-opacity="0.7" fill-opacity="0.7" stroke-linecap="round" transform="translate(270.04226246798964 10) rotate(0 60.77812374345956 44.09298695839243)"><path d="M22.05 0 M22.05 0 C42.96 2.53, 61.18 0.59, 99.51 0 M22.05 0 C47.64 0.14, 70.82 0.44, 99.51 0 M99.51 0 C114.34 -1.62, 122.51 7.1, 121.56 22.05 M99.51 0 C114.22 0.12, 123.11 8.48, 121.56 22.05 M121.56 22.05 C119.23 36.82, 120.93 46.99, 121.56 66.14 M121.56 22.05 C121.74 36.44, 121.5 48.75, 121.56 66.14 M121.56 66.14 C119.69 79.26, 114.62 87.69, 99.51 88.19 M121.56 66.14 C119.48 83.07, 112.26 89.21, 99.51 88.19 M99.51 88.19 C73.63 87.66, 48.06 90.29, 22.05 88.19 M99.51 88.19 C73.71 88.49, 48.1 87.55, 22.05 88.19 M22.05 88.19 C8.96 89.03, 0.19 81.45, 0 66.14 M22.05 88.19 C6.53 87.19, -0.09 80.64, 0 66.14 M0 66.14 C-0.3 55.95, -1.02 46.74, 0 22.05 M0 66.14 C0.34 53.11, -0.46 40.36, 0 22.05 M0 22.05 C1.88 6.06, 6.03 1.96, 22.05 0 M0 22.05 C2.18 8.83, 5.2 -1.16, 22.05 0" stroke="#1e1e1e" stroke-width="1" fill="none"/></g><g stroke-opacity="0.7" fill-opacity="0.7" transform="translate(289.2315238019752 23.4020537438538) rotate(0 17.433332443237305 12.5)"><text x="17.433332443237305" y="0" font-family="Virgil, Segoe UI Emoji" font-size="20px" fill="#343a40" text-anchor="middle" style="white-space: pre;" direction="ltr" dominant-baseline="text-before-edge">key:</text></g><g stroke-opacity="0.7" fill-opacity="0.7" transform="translate(290.75668376882663 56.74055891357057) rotate(0 16.950000762939453 12.5)"><text x="16.950000762939453" y="0" font-family="Virgil, Segoe UI Emoji" font-size="20px" fill="#343a40" text-anchor="middle" style="white-space: pre;" direction="ltr" dominant-baseline="text-before-edge">val:</text></g><g transform="translate(337.135811289401 24.261392418689013) rotate(0 15.933333396911621 12.5)"><text x="0" y="0" font-family="Virgil, Segoe UI Emoji" font-size="20px" fill="#1971c2" text-anchor="start" style="white-space: pre;" direction="ltr" dominant-baseline="text-before-edge">foo</text></g><g transform="translate(339.8999809851191 57.59989758840578) rotate(0 15.5 12.5)"><text x="15.5" y="0" font-family="Virgil, Segoe UI Emoji" font-size="20px" fill="#c2255c" text-anchor="middle" style="white-space: pre;" direction="ltr" dominant-baseline="text-before-edge">egg</text></g><g stroke-opacity="0.7" fill-opacity="0.7" stroke-linecap="round" transform="translate(138.9725737240434 11.048557509951593) rotate(0 60.77812374345956 44.09298695839243)"><path d="M22.05 0 M22.05 0 C47.32 -0.15, 73.45 0.43, 99.51 0 M22.05 0 C50.39 0.89, 78.33 0.5, 99.51 0 M99.51 0 C114.46 -1.07, 120.7 7.09, 121.56 22.05 M99.51 0 C113.43 -0.67, 120.51 6.91, 121.56 22.05 M121.56 22.05 C120.31 31.83, 123.67 45.01, 121.56 66.14 M121.56 22.05 C120.44 35.07, 120.78 48.19, 121.56 66.14 M121.56 66.14 C122.1 81.25, 112.46 87.91, 99.51 88.19 M121.56 66.14 C120.06 79.33, 113.26 88.79, 99.51 88.19 M99.51 88.19 C77.27 87.86, 59.1 87.51, 22.05 88.19 M99.51 88.19 C75.33 88.3, 49.91 88.57, 22.05 88.19 M22.05 88.19 C9.06 87.3, -1.28 82.78, 0 66.14 M22.05 88.19 C5.14 87.29, -1.47 79.81, 0 66.14 M0 66.14 C-1.43 50.09, 1.33 31.42, 0 22.05 M0 66.14 C-0.8 49.76, 0.25 31.77, 0 22.05 M0 22.05 C1.45 5.42, 5.83 1.24, 22.05 0 M0 22.05 C0.59 8.3, 5.89 1.48, 22.05 0" stroke="#1e1e1e" stroke-width="1" fill="none"/></g><g stroke-opacity="0.7" fill-opacity="0.7" transform="translate(151.34621124334365 23.926332498829538) rotate(0 17.433332443237305 12.5)"><text x="17.433332443237305" y="0" font-family="Virgil, Segoe UI Emoji" font-size="20px" fill="#343a40" text-anchor="middle" style="white-space: pre;" direction="ltr" dominant-baseline="text-before-edge">key:</text></g><g stroke-opacity="0.7" fill-opacity="0.7" transform="translate(152.8713712101951 56.74055891357057) rotate(0 16.950000762939453 12.5)"><text x="16.950000762939453" y="0" font-family="Virgil, Segoe UI Emoji" font-size="20px" fill="#343a40" text-anchor="middle" style="white-space: pre;" direction="ltr" dominant-baseline="text-before-edge">val:</text></g><g transform="translate(199.25049873076944 24.261392418689013) rotate(0 26.549999237060547 12.5)"><text x="0" y="0" font-family="Virgil, Segoe UI Emoji" font-size="20px" fill="#1971c2" text-anchor="start" style="white-space: pre;" direction="ltr" dominant-baseline="text-before-edge">count</text></g><g transform="translate(214.79800172803175 57.59989758840578) rotate(0 2.7166666984558105 12.5)"><text x="2.7166666984558105" y="0" font-family="Virgil, Segoe UI Emoji" font-size="20px" fill="#c2255c" text-anchor="middle" style="white-space: pre;" direction="ltr" dominant-baseline="text-before-edge">1</text></g><g stroke-opacity="0.7" fill-opacity="0.7" stroke-linecap="round" transform="translate(401.11195121193623 10.524278754975796) rotate(0 60.77812374345956 44.09298695839246)"><path d="M22.05 0 M22.05 0 C42.41 -0.92, 66.59 1.36, 99.51 0 M22.05 0 C48.9 0.8, 75.9 0.83, 99.51 0 M99.51 0 C115.61 1.08, 122.77 9.2, 121.56 22.05 M99.51 0 C116.06 -1.84, 121.62 5.59, 121.56 22.05 M121.56 22.05 C119.89 36.17, 123.56 47.02, 121.56 66.14 M121.56 22.05 C122.4 35.46, 121.17 49.86, 121.56 66.14 M121.56 66.14 C119.75 80.15, 115.01 88.53, 99.51 88.19 M121.56 66.14 C121.62 81.51, 112.45 87.22, 99.51 88.19 M99.51 88.19 C83.69 89.33, 64.44 89.15, 22.05 88.19 M99.51 88.19 C80.94 88.02, 63.99 89.22, 22.05 88.19 M22.05 88.19 C8 89.72, -0.5 82.65, 0 66.14 M22.05 88.19 C6.84 87.06, -0.25 78.89, 0 66.14 M0 66.14 C0.14 48.66, 0.45 33.63, 0 22.05 M0 66.14 C0.14 49.85, 0.6 32.68, 0 22.05 M0 22.05 C1.95 7.16, 9.15 -0.09, 22.05 0 M0 22.05 C1.24 9.47, 5.68 -0.72, 22.05 0" stroke="#1e1e1e" stroke-width="1" fill="none"/></g><g stroke-opacity="0.7" fill-opacity="0.7" transform="translate(413.4855887312365 24.97489000878113) rotate(0 17.433332443237305 12.5)"><text x="17.433332443237305" y="0" font-family="Virgil, Segoe UI Emoji" font-size="20px" fill="#343a40" text-anchor="middle" style="white-space: pre;" direction="ltr" dominant-baseline="text-before-edge">key:</text></g><g stroke-opacity="0.7" fill-opacity="0.7" transform="translate(415.0107486980879 58.3133951784979) rotate(0 16.950000762939453 12.5)"><text x="16.950000762939453" y="0" font-family="Virgil, Segoe UI Emoji" font-size="20px" fill="#343a40" text-anchor="middle" style="white-space: pre;" direction="ltr" dominant-baseline="text-before-edge">val:</text></g><g transform="translate(461.38987621866227 25.834228683616345) rotate(0 26.549999237060547 12.5)"><text x="0" y="0" font-family="Virgil, Segoe UI Emoji" font-size="20px" fill="#1971c2" text-anchor="start" style="white-space: pre;" direction="ltr" dominant-baseline="text-before-edge">count</text></g><g transform="translate(472.53737912055715 58.648455098357374) rotate(0 7.116666793823242 12.5)"><text x="7.116666793823242" y="0" font-family="Virgil, Segoe UI Emoji" font-size="20px" fill="#c2255c" text-anchor="middle" style="white-space: pre;" direction="ltr" dominant-baseline="text-before-edge">2</text></g><g stroke-linecap="round"><g stroke-opacity="0.7" fill-opacity="0.7" transform="translate(19.357497062524146 124.64333555206156) rotate(0 245.3910906803373 0.09478785067594231)"><path d="M1.03 -0.9 C82.82 -1, 409.07 -1.16, 490.67 -0.94 M0.12 1.24 C81.79 1.29, 408.31 0.6, 489.96 0.11" stroke="#1e1e1e" stroke-width="1" fill="none"/></g><g stroke-opacity="0.7" fill-opacity="0.7" transform="translate(19.357497062524146 124.64333555206156) rotate(0 245.3910906803373 0.09478785067594231)"><path d="M460.3 11.25 C468.59 7.81, 479.17 2.37, 491.03 -0.27 M461.94 10.61 C470.73 7.03, 478.6 4.73, 489.53 0.23" stroke="#1e1e1e" stroke-width="1" fill="none"/></g><g stroke-opacity="0.7" fill-opacity="0.7" transform="translate(19.357497062524146 124.64333555206156) rotate(0 245.3910906803373 0.09478785067594231)"><path d="M460.23 -9.27 C468.47 -6.66, 479.08 -6.04, 491.03 -0.27 M461.87 -9.91 C470.61 -7.45, 478.5 -3.69, 489.53 0.23" stroke="#1e1e1e" stroke-width="1" fill="none"/></g></g><mask/><g stroke-opacity="0.7" fill-opacity="0.7" transform="translate(98.53105074805319 147.442932419846) rotate(0 41.25 12.5)"><text x="0" y="0" font-family="Virgil, Segoe UI Emoji" font-size="20px" fill="#343a40" text-anchor="start" style="white-space: pre;" direction="ltr" dominant-baseline="text-before-edge">result: ?</text></g><g stroke-opacity="0.7" fill-opacity="0.7" transform="translate(218.47138148158956 149.59111744790937) rotate(0 6.166666507720947 12.5)"><text x="0" y="0" font-family="Virgil, Segoe UI Emoji" font-size="20px" fill="#343a40" text-anchor="start" style="white-space: pre;" direction="ltr" dominant-baseline="text-before-edge">=</text></g><g stroke-opacity="0.7" fill-opacity="0.7" transform="translate(266.44751377500415 148.15899409586706) rotate(0 7.183333396911621 12.5)"><text x="0" y="0" font-family="Virgil, Segoe UI Emoji" font-size="20px" fill="#343a40" text-anchor="start" style="white-space: pre;" direction="ltr" dominant-baseline="text-before-edge">&amp;</text></g><g transform="translate(184.25664345889345 147.4240006943204) rotate(0 15.933333396911621 12.5)"><text x="0" y="0" font-family="Virgil, Segoe UI Emoji" font-size="20px" fill="#1971c2" text-anchor="start" style="white-space: pre;" direction="ltr" dominant-baseline="text-before-edge">foo</text></g><g transform="translate(233.5648220959838 144.9594220629815) rotate(0 15.5 12.5)"><text x="15.5" y="0" font-family="Virgil, Segoe UI Emoji" font-size="20px" fill="#c2255c" text-anchor="middle" style="white-space: pre;" direction="ltr" dominant-baseline="text-before-edge">egg</text></g><g transform="translate(282.7324880513945 146.13259025516334) rotate(0 26.549999237060547 12.5)"><text x="0" y="0" font-family="Virgil, Segoe UI Emoji" font-size="20px" fill="#1971c2" text-anchor="start" style="white-space: pre;" direction="ltr" dominant-baseline="text-before-edge">count</text></g><g transform="translate(354.02917173906303 147.08207208696484) rotate(0 7.116666793823242 12.5)"><text x="7.116666793823242" y="0" font-family="Virgil, Segoe UI Emoji" font-size="20px" fill="#c2255c" text-anchor="middle" style="white-space: pre;" direction="ltr" dominant-baseline="text-before-edge">2</text></g><g stroke-opacity="0.7" fill-opacity="0.7" transform="translate(339.4858047291576 147.44293241984604) rotate(0 6.166666507720947 12.5)"><text x="0" y="0" font-family="Virgil, Segoe UI Emoji" font-size="20px" fill="#343a40" text-anchor="start" style="white-space: pre;" direction="ltr" dominant-baseline="text-before-edge">=</text></g></svg>
