<svg xmlns="http://www.w3.org/2000/svg" fill="currentColor" viewBox="0 0 999 999"><path d="M499.8,8.4C228.7,8.4,8.1,228.6,8.1,499.7S228.7,991,499.8,991s491.3-220.2,491.3-491.3 C991.1,227,772.5,8.4,499.8,8.4 M499.8,931.7c-239.1,0-432.4-192.9-432.4-432s193.3-432,432.4-432s432,193.3,432,432 C933.4,736.9,740.5,931.7,499.8,931.7"/><path d="M645.7,396.1C604.9,277.6,571,155.4,499.8,155.4S394.7,277.6,354,396.1C305,540,257.5,687.4,228.7,687.4 v79.4c71.1,0,134-177.9,183-328.9c37.2-113.4,60.9-211.9,86.6-211.9c25.7,0,49,93.3,84.6,201.6c51,154.1,113.4,339.1,186.2,339.1 V689C740.5,689.4,694.7,540.4,645.7,396.1"/><path d="M499.8,513.1c-79.8,0-157.7-115-251-115V461c64.4,0,155.7,117,251,117c93.3,0,184.6-117,251-117v-62.8 C657.1,398.1,579.3,513.1,499.8,513.1"/><path d="M501.4,8.4C230.2,8.4,10.1,228.6,10.1,499.7S230.2,991,501.4,991s491.3-220.6,491.3-491.3 C991.1,227,772.5,8.4,501.4,8.4 M501.4,931.7c-239.1,0-432-193.3-432-432s192.9-432,432-432s432,193.3,432,432 C933.4,736.9,740.5,931.7,501.4,931.7"/><path d="M647.2,396.1c-40.7-118.6-74.7-240.7-145.8-240.7S396.3,277.6,355.5,396.1 c-49,143.9-96.4,291.3-125.3,291.3v79.4c71.1,0,134-177.9,183-328.9c37.2-113.4,60.9-211.9,86.6-211.9s49,93.3,84.6,201.6 C635,581.9,697.8,766.9,770.6,766.9V689C740.5,689.4,694.7,540.4,647.2,396.1"/><path d="M501.4,513.1c-79.4,0-157.7-115-251-115V461c64.4,0,155.7,117,251,117c93.3,0,184.6-117,251-117v-62.8 C657.1,398.1,579.3,513.1,501.4,513.1"/></svg>