<svg viewBox="0 0 32 32" fill="none" xmlns="http://www.w3.org/2000/svg">
<g clip-path="url(#clip0_349_26)">
<path d="M19.027 31.9999H32V23.7837C32 20.2013 29.0958 17.2972 25.5135 17.2972C21.9311 17.2972 19.027 20.2013 19.027 23.7837V31.9999Z" fill="#127B75"/>
<path d="M32 6.48648C32 2.90409 29.0958 0 25.5135 0C21.9311 0 19.027 2.90409 19.027 6.48648C19.027 10.0689 21.9311 12.973 25.5135 12.973C29.0958 12.973 32 10.0689 32 6.48648Z" fill="#127B75"/>
<path d="M0 0H12.973V8.2162C12.973 11.7986 10.0689 14.7026 6.48648 14.7026C2.90409 14.7026 0 11.7986 0 8.2162V0Z" fill="#127B75"/>
<path d="M12.973 25.5135C12.973 29.0959 10.0689 32 6.48648 32C2.90409 32 0 29.0959 0 25.5135C0 21.9311 2.90409 19.027 6.48648 19.027C10.0689 19.027 12.973 21.9311 12.973 25.5135Z" fill="#127B75"/>
</g>
<defs>
<clipPath id="clip0_349_26">
<rect width="32" height="32" fill="white"/>
</clipPath>
</defs>
</svg>
