<svg xmlns="http://www.w3.org/2000/svg" fill="currentColor" viewBox="0 0 148.5 200"><path d="M141.696,21.74l-15.854-4.244c-17.048-4.512-30.68-7.729-51.178-7.729c-20.53,0-34.162,3.217-51.177,7.729L6.804,21.939	v156.086l16.684,4.445c17.048,4.543,30.646,7.762,51.21,7.762c20.498,0,34.163-3.219,51.178-7.762l15.821-4.18 M74.896,150.299	c-3.051,0-5.506-2.455-5.506-5.506l-0.1-26.768c0-2.686,0.996-3.648,4.81-4.809L31.58,94.443c2.223,1.229,8.358,5.871,8.358,10.283	v48.025c0,5.273-10.614,8.027-10.614,8.027c13.897,3.715,24.743,6.301,39.636,6.898v11.244c-16.054-0.531-27.562-3.316-42.521-7.297	l-8.358-2.189V30.598l8.358-2.223c14.958-3.98,26.467-6.734,42.521-7.297v11.277c-14.926,0.562-25.738,3.184-39.636,6.898	c0,0,10.614,2.752,10.614,8.025v38.906c0,3.051,1.956,4.08,4.644,5.307l31.211,14.494c3.88,1.99,4.643,1.957,4.643,5.273v33.5	c0,3.051-2.487,5.506-5.506,5.506 M131.314,169.402l-8.357,2.223c-15.092,3.98-26.7,6.766-42.953,7.297v-11.277	c15.125-0.498,26.037-3.15,40.066-6.898c0,0-10.613-2.754-10.613-8.027v-50.912c0-3.051-1.957-4.045-4.643-5.24L73.57,82.039	c-3.881-2.057-4.61-1.99-4.61-5.307V55.24c0-3.041,2.465-5.506,5.506-5.506c3.04,0,5.505,2.465,5.505,5.506l0.1,15.721	c0,2.654-1.027,3.615-4.809,4.811l42.554,18.705c-2.222-1.193-8.358-5.836-8.358-10.281V47.279c0-5.307,10.613-8.025,10.613-8.025	c-14.029-3.781-24.941-6.436-40.066-6.898V21.078c16.253,0.529,27.861,3.283,42.953,7.297l8.357,2.223V169.402z M141.696,21.74	v156.518"/></svg>