<svg version="1.1" xmlns="http://www.w3.org/2000/svg" viewBox="0 0 454.2444444444445 306.78116912092855" ><g transform="translate(107 10) rotate(0 113.00000000000023 20.6626506024096)"><path d="M-0.1615284563633769 1.684951683430036 C77.80159276779449 -2.661393415929438, 160.17535117936995 -1.7974892156802431, 227.62061037530052 0.37432211747840327 M-0.39927121749017963 -0.5972138684708994 C76.62474865614855 -0.9039042351718424, 155.04353260246032 -1.2219159148748395, 225.1664128291806 -0.12376423751153194 M225.54155311733513 -1.6894731298089027 C225.30690798338935 11.604537463645977, 224.14989957388923 25.87708657028445, 226.16110406070976 41.979415711958005 M225.91482890769868 0.7062035091221333 C224.7960243905841 9.640890805207821, 226.39322251928436 19.830022223607962, 225.61621333286195 41.55909177010138 M224.47765063836823 41.76483066432181 C173.25745589125108 41.311935205897406, 121.84389166143433 41.37631048139685, -0.4191179935121385 40.424751580370916 M226.35450487302742 41.445319898392995 C175.30421082980152 42.11714484171427, 122.1248819864947 42.36986952648576, -0.04078687436059264 41.05437454465083 M-1.6189536079764366 40.815690574247434 C0.8230664931192815 29.913553136524307, 0.9228787623300969 21.85665343073477, -0.7445656284689903 -0.9274518266320229 M0.2270883433520794 41.10672315304358 C-0.9250507613756211 30.57312430154128, -0.17342605796833355 19.973901212978433, 0.7745649926364422 -0.9732404462993145" stroke="#000000" stroke-width="1" fill="none"/></g><g transform="translate(183.5 18.162650602409713) rotate(0 32 13)"><text x="32" y="18" font-family="Virgil, Segoe UI Emoji" font-size="20px" fill="#000000" text-anchor="middle" style="white-space:pre" direction="ltr">Secret</text></g><g transform="translate(106 101) rotate(0 113.00000000000023 20.6626506024096)"><path d="M-0.9384321387178088 -0.08263204737366135 C55.544517438777795 0.709326657081448, 112.11197915947103 0.7644715902840962, 226.03808615892643 -1.5997280763789974 M227.1387454047802 0.37943413108587265 C225.6803986619353 11.350041110427625, 225.610990960443 25.92272175920297, 225.22422347217827 41.81652670820435 M225.8748213904488 39.83417394473286 C158.68722609170015 41.13536991235806, 91.14223023995774 40.56089251633402, -0.01092468345600664 41.668421299922464 M-1.3549944385886192 42.38875609358033 C-2.210982105382774 31.072259555963512, -1.854005834707115 21.138842547155292, 1.3768230453133583 0.6252203211188316" stroke="#000000" stroke-width="1.5" fill="none" stroke-dasharray="12 8"/></g><g transform="translate(126 111.16265060240971) rotate(0 94 10)"><text x="94" y="16" font-family="Cascadia, Segoe UI Emoji" font-size="16px" fill="#000000" text-anchor="middle" style="white-space:pre" direction="ltr">TweetNaCl.secret_box</text></g><g><g transform="translate(216 54.66265060240971) rotate(0 -0.08116178972181842 22.073535095108696)"><path d="M-0.9359147921204567 0.057069553434848874 C-0.6652295536328288 7.3336799755692486, 0.4894538727755693 36.3752096787095, 0.6204860961264785 44.06112643629312 M0.7735912126768381 -0.9585728763509542 C0.939458591335994 6.4051257656048985, -0.7617333190814558 37.538271548254414, -0.5352420943682228 45.1056430665683" stroke="#000000" stroke-width="1" fill="none"/></g><g transform="translate(216 54.66265060240971) rotate(0 -0.08116178972181842 22.073535095108696)"><path d="M-7.755579306824682 23.162718323771973 C-7.761474712104177 26.541114205911867, -2.659597175716611 32.30786643018094, -0.5945777806346451 44.91273130009882 M-7.12757794846463 23.416287721847315 C-4.9857776821116975 29.266945327364546, -4.113162358849999 37.08942658160957, -0.7355303416852985 44.991656824005766" stroke="#000000" stroke-width="1" fill="none"/></g><g transform="translate(216 54.66265060240971) rotate(0 -0.08116178972181842 22.073535095108696)"><path d="M7.636755294331434 23.439855571950527 C4.299577084311976 26.63823949627349, 6.071098987638374 32.34502904304637, -0.5945777806346451 44.91273130009882 M8.264756652691485 23.69342497002587 C5.819987273140169 29.391195523685884, 2.1086724195735345 37.13114363218229, -0.7355303416852985 44.991656824005766" stroke="#000000" stroke-width="1" fill="none"/></g></g><g stroke-opacity="0.2" fill-opacity="0.2" transform="translate(10 212.55153949129863) rotate(0 216.55555555555543 25.5)"><path d="M13.706153251230717 -1.5264098420739174 M13.7626797791591 0.045125388933174325 C108.14119435648969 -1.3468268369283662, 202.39462805387186 -2.977554097027921, 420.36665977294376 -0.2615998692463473 M12.530100884188863 -0.3857157193994367 C121.92449632286369 1.5319077583027982, 231.5867546825552 1.213257077109518, 420.20443660670463 0.49517900057052766 M420.361111111111 0 C428.3401961765354 -1.0848068967461586, 432.3973982772892 4.617798589169979, 432.00306396103554 14.206018708646297 M418.3668089351719 1.0396652445197105 C428.2372499096309 1.7959433574229475, 433.49291727422826 2.2152998346835377, 435.0442820537006 13.244569744542241 M431.84370490825825 13.78518209606409 C434.16379406773575 22.37736634593457, 432.16248109662064 31.075118527933952, 434.2530960730379 39.00609717518091 M432.85646235487513 12.599887739866972 C433.0752209502933 22.096983657218516, 432.21206022088506 32.11301191709936, 432.69898700258784 38.60715747997165 M433.111111111111 38.25 C431.1291494808262 47.480144523084164, 429.6673849067753 50.64239051192999, 421.058542533881 52.71220853179693 M434.9435124836033 38.09665157645941 C435.05139130233874 45.41511075682938, 429.2224540221607 50.18365928120911, 422.3370954739963 52.741180839017034 M421.0859177543179 52.06162624093456 C334.0096939320622 48.99054331558877, 246.23120078981907 50.290200277968474, 13.000523370845206 50.66190446894278 M419.8155363572838 51.50438120866329 C271.2547990754794 49.340185928593925, 122.62302259877373 48.884769107694225, 12.263449080651947 51.239292150138986 M12.75 51 C5.04518137127161 51.19997265189886, 0.8798798099160194 47.428304456174374, 1.3319200053811073 39.36057975143194 M11.184403993189335 50.11515524238348 C5.2324412982910875 53.023909809067845, 1.3503935139626262 44.99531248994172, -0.39248914308845984 39.806573976948854 M-0.24687836319208145 37.18453035503626 C0.6306610159389674 29.963113197870552, 1.19413686318323 22.65488116033375, -0.7993707433342934 14.324848510324955 M0.7979459054768085 37.89680327102542 C0.7026441386528313 30.442227185331284, -1.0090731093101204 25.110587348416445, -0.32707400247454643 12.560826551169157 M0 12.75 C-0.8555015549063683 4.334443114697933, 4.403589583933353 1.9228060469031334, 13.566902972757816 0.7233979925513268 M-0.22930993884801865 11.729941867291927 C1.7742041509598492 4.058570982888341, 5.179915003105998 1.1271149296313525, 13.639957455918193 -0.2636453729122876" stroke="#000000" stroke-width="1" fill="none"/></g><g transform="translate(24.5 227.05153949129863) rotate(0 131.5 10)"><text x="0" y="16" font-family="Cascadia, Segoe UI Emoji" font-size="16px" fill="#495057" text-anchor="start" style="white-space:pre" direction="ltr">https://example.com?payload=</text></g><g transform="translate(286.6999999999998 227.1515394912983) rotate(0 47 10)"><text x="0" y="16" font-family="Cascadia, Segoe UI Emoji" font-size="16px" fill="#364fc7" text-anchor="start" style="white-space:pre" direction="ltr">ciphertext</text></g><g transform="translate(380.64814814814827 227.12561356537276) rotate(0 4.5 10)"><text x="4.5" y="16" font-family="Cascadia, Segoe UI Emoji" font-size="16px" fill="#000000" text-anchor="middle" style="white-space:pre" direction="ltr">#</text></g><g transform="translate(389.70370370370347 227.1811691209282) rotate(0 14 10)"><text x="0" y="16" font-family="Cascadia, Segoe UI Emoji" font-size="16px" fill="#2b8a3e" text-anchor="start" style="white-space:pre" direction="ltr">key</text></g><g><g transform="translate(165.85555555555538 151.38116912092778) rotate(0 76.34034832799466 37.05219539632719)"><path d="M0.7004647359251976 0.9332678452134131 C5.187803248840358 5.458032179927401, 14.021103466716125 22.203960370300077, 27.149934074448264 26.112152134213282 C40.2787646821804 30.020343898126487, 62.415479195393836 22.329574192177436, 79.47344838231803 24.382418428692652 C96.53141756924222 26.43526266520787, 117.23138614920593 30.270437930414243, 129.4977491959934 38.42921755330458 C141.76411224278087 46.58799717619492, 149.1019316053505 67.3405218541072, 153.07162666304285 73.33509616603469 M-0.3909300070535391 0.37762951861135674 C4.47368438077436 4.636151766139962, 16.395230584456115 20.164060797374432, 29.53227066657304 24.28179058922982 C42.669310748689966 28.39952038108521, 61.77319450172244 23.095125980490753, 78.431310485648 25.08400826974368 C95.08942646957355 27.07289055899661, 117.21175982120141 28.10795882403084, 129.48096657012636 36.215084324747394 C141.7501733190513 44.32220982546395, 148.35298737233717 67.44345006828283, 152.04655097919763 73.726761274043" stroke="#000000" stroke-width="1" fill="none"/></g><g transform="translate(165.85555555555538 151.38116912092778) rotate(0 76.34034832799466 37.05219539632719)"><path d="M132.7138182100497 51.14703277027358 C138.55972950319816 58.05929117564971, 142.3365189371194 64.96515940200277, 153.1322839384085 75.1424353420767 M130.49741224838718 53.014857358244555 C138.3124988040696 57.66525861811511, 143.47642108843652 65.71084624219988, 152.99298576387824 73.0802525915238" stroke="#000000" stroke-width="1" fill="none"/></g><g transform="translate(165.85555555555538 151.38116912092778) rotate(0 76.34034832799466 37.05219539632719)"><path d="M151.44207659194015 42.758210423424785 C151.24449239880119 52.45435791329526, 149.05024017680032 62.03479451946092, 153.1322839384085 75.1424353420767 M149.22567063027762 44.62603501139576 C151.49598537685085 51.960267988680144, 151.03867891445793 62.523734657682695, 152.99298576387824 73.0802525915238" stroke="#000000" stroke-width="1" fill="none"/></g></g><g><g transform="translate(276.96666666666624 146.93672467648344) rotate(0 65.37518476516539 41.394683962232534)"><path d="M0.556596578657627 -0.5265516176819801 C8.909232787015252 3.938824976649524, 31.218463081066236 18.527682445501664, 51.04908509535917 26.16441586265946 C70.8797071096521 33.80114927981725, 106.19636385633966 35.76859827201686, 119.54032866441521 45.29384888526479 C132.88429347249078 54.81909949851271, 129.00718852077384 77.2933825632488, 131.11287394381253 83.315919542147 M-0.6103289468865842 1.811404837695882 C8.009975537602195 6.492138558918999, 33.190648440784514 20.507181406501438, 53.14514264012889 27.438159441777042 C73.09963683947326 34.36913747705265, 106.08071027633157 34.41463770224586, 119.11663624917965 43.39727304934951 C132.1525622220277 52.37990839645315, 129.33652510450926 74.99961605577037, 131.3606984772173 81.33397152439893" stroke="#000000" stroke-width="1" fill="none"/></g><g transform="translate(276.96666666666624 146.93672467648344) rotate(0 65.37518476516539 41.394683962232534)"><path d="M117.05406882161151 52.55224884999227 C122.02733410441638 65.66522929264028, 129.35321381765596 74.71674132440481, 133.1835273437587 83.10618834362567 M117.12540643581997 54.090224306557886 C122.0692994404315 61.63629925455091, 123.78771917292754 67.34407606780302, 130.70789518658196 81.86632926554621" stroke="#000000" stroke-width="1" fill="none"/></g><g transform="translate(276.96666666666624 146.93672467648344) rotate(0 65.37518476516539 41.394683962232534)"><path d="M137.4396062394017 50.19643337043638 C134.6994540492926 64.29393002981861, 134.32424198891027 74.23540394181038, 133.1835273437587 83.10618834362567 M137.51094385361017 51.734408827002 C137.70592830495366 59.97184176138757, 134.65608838199137 66.23065334388092, 130.70789518658196 81.86632926554621" stroke="#000000" stroke-width="1" fill="none"/></g></g><g><g transform="translate(24.244444444444525 254.78116912092855) rotate(0 177.73197698986633 -0.17431827932603028)"><path d="M0.6953344479203223 0.48913556188344964 C60.12995624293883 0.18446956723928465, 296.6616018111507 -0.8856406107544899, 355.8627076759934 -0.8377721205353736 M-0.3987536962609739 -0.2996722134668379 C58.93102325233009 -0.5599201070982962, 295.5953238930522 0.4029748568218202, 354.8425837422628 0.25982276740483945" stroke="#c92a2a" stroke-width="2" fill="none"/></g></g><g transform="translate(42.244444444444525 274.78116912092855) rotate(0 79.5 10.5)"><text x="0" y="15" font-family="Virgil, Segoe UI Emoji" font-size="16px" fill="#c92a2a" text-anchor="start" style="white-space:pre" direction="ltr">Visible by the server</text></g><g><g transform="translate(387.2444444444445 254.78116912092855) rotate(0 17.942189918458553 -0.9504460915923119)"><path d="M-0.7067631617188453 -0.16457933038473138 C5.479703452686469 -0.5679687047998112, 30.46630205561717 -1.4001399700840313, 36.59114299863577 -1.7363128527998923 M1.1230474490392952 -1.2965874241758137 C7.161887747195238 -1.619888471957917, 29.20999176586357 -0.5541366661557309, 35.42844760929234 -0.5854518492985519" stroke="#2b8a3e" stroke-width="2" fill="none"/></g></g><g transform="translate(293.2444444444445 275.78116912092855) rotate(0 75.5 10.5)"><text x="0" y="15" font-family="Virgil, Segoe UI Emoji" font-size="16px" fill="#2b8a3e" text-anchor="start" style="white-space:pre" direction="ltr">Stays on the client</text></g></svg>
