<svg version="1.1" xmlns="http://www.w3.org/2000/svg" viewBox="0 0 411.83673469387566 170.13578067015692">
  <!-- svg-source:excalidraw -->
  <g transform="translate(205.3402729302262 -36.36068109349267) rotate(89.99999999999994 75.06789033507846 121.42857142857113)"><path d="M27.613832210242435 26.654364107343916 C27.613832210242435 26.654364107343916, 27.613832210242435 26.654364107343916, 27.613832210242435 26.654364107343916 M27.613832210242435 26.654364107343916 C27.613832210242435 26.654364107343916, 27.613832210242435 26.654364107343916, 27.613832210242435 26.654364107343916 M22.0386480680214 41.301851034237174 C28.85968828502201 30.81684570565175, 34.08700529669771 22.86076298355781, 48.015906008974426 8.935901556604076 M20.834498007829648 41.77429551824751 C26.06164030030801 34.93611918917646, 31.89403541850254 27.078559433066975, 46.83586477589678 11.165539665587712 M14.288207230202005 54.13338473250775 C21.96094538973891 47.736745678039675, 29.254679555463696 36.06714634230871, 56.18790265739233 7.244883890174499 M11.794066208458588 55.452124156036064 C26.798523399497974 41.099642407767256, 39.41703630272054 25.4293757721156, 55.23882650219173 6.389796201981774 M10.389628364296897 65.15338085759969 C24.391660126989198 48.50470312705504, 39.641376428604914 28.973266216690973, 62.644106640775924 4.046524277302034 M11.133425687032087 64.99394660797508 C21.024091016894893 51.77289438467008, 33.88078884301007 40.054918747618814, 61.45825836557639 5.964432120668299 M10.697153540810042 71.64151057263484 C23.887613297970766 53.39043910063293, 39.142498883084436 37.181698847692466, 66.29544406953426 4.514804328880846 M8.022187166397863 72.33965132234266 C22.604806781841166 57.20631005026416, 34.33957375552128 41.74923104247311, 67.63256450380356 4.655286942697703 M6.653722754188415 81.13434380939853 C24.140220497673383 60.07589782321179, 44.3936898558405 37.96645495968446, 73.92412577508583 1.988571486027901 M8.14639366834664 79.85204114108038 C32.17961264598766 52.51396036415376, 54.46173267017808 26.470594779438443, 74.1366681506355 3.621581644343202 M4.541737806860034 86.06918758923044 C28.07959632849149 60.975034130662955, 53.94896978306774 31.923786940269054, 81.24652925187763 3.105958180528475 M6.896784397650187 88.52317162068417 C30.65378089356036 56.8763192585681, 57.55586515608706 27.18743168569197, 80.08239357786294 3.112837817546321 M4.577767164281376 95.18263392413866 C21.8628732171649 77.49837117675233, 37.762564068223384 56.72160863641177, 84.60031671536618 1.9199626743906109 M3.9009995971087292 94.93539893331837 C32.873384111289425 62.96146751756457, 63.06226747539929 31.14200834670089, 86.44308415328615 2.1469585094713537 M3.2239001288804516 104.60730233546289 C29.848785101919777 70.75978928458804, 57.774700325261165 38.93069060041327, 89.2876121889889 5.259320319176815 M2.7724347214940295 103.92062238547894 C25.041590982083065 77.07150671070265, 46.65799574503534 52.121460651931955, 89.83427942768631 5.4335994818370565 M1.594569753085267 111.76096859454287 C27.32263048210718 79.01631882530552, 51.938634773296535 49.10859885547016, 91.95000150416439 8.353503556004021 M2.9545633505778426 110.01191315866186 C23.23161373995486 86.96715336404584, 43.09894745575313 63.88902624788555, 92.32621513482576 6.561669210916612 M3.831552839323841 114.97156472271831 C22.566825748649936 94.82700891021099, 39.12100922478446 71.46345888145746, 96.31929618433011 9.476560236434743 M3.533437189131938 116.63101430936308 C38.8674256820232 73.56633387235198, 73.96749979170221 30.88368714490717, 96.63208707548571 8.205667208428785 M1.510792853052635 123.36630773199727 C35.59995642524877 85.39934202518808, 69.45543072785117 44.854120000749575, 100.90465150292354 12.062694462031487 M3.0820089799565267 121.53996950974692 C37.068099771668784 83.06250904299525, 72.86141479364348 42.58461511922695, 99.2326691754474 9.803764861092333 M3.297695067709178 128.72315172394224 C35.555644940358754 89.45649590952729, 72.30141085217682 49.32033070564579, 105.36756648338223 12.33126658435674 M2.7529276488328875 128.25507514653214 C41.56458606628667 84.96436437807488, 79.75964563910138 42.546367445572656, 104.18881348549212 12.74530543062599 M4.010008506730941 134.60520705011572 C29.98437408841358 102.07341145490922, 57.28468220404958 70.37837427774363, 108.89688389914365 14.911793204973009 M4.778920246542242 132.74379948143746 C25.005493183734533 107.69963895223063, 45.660687097816236 82.95771645335631, 106.95395018140108 13.558304053748515 M2.3367669145649472 140.74044989230302 C36.66114868559231 103.02672967663727, 65.93560972418518 64.97896868382118, 113.2398493026358 15.714237595220034 M3.6292329198753635 139.36699223140445 C32.288447604337264 104.69893266631703, 64.25496260483207 69.4918875977563, 112.84264659294607 14.342238161955898 M5.837524872629686 143.62788394162104 C33.99187269853809 111.38232622614942, 67.39671495786085 73.81568607032729, 113.14075685133417 18.08226717755138 M4.446367027594491 145.04754624770626 C47.461649501275815 97.39318574486902, 90.44140061875191 48.59553693252728, 114.90675302994629 18.483804962857953 M5.381003625372159 152.6907978798551 C39.95715379845389 109.89020065102773, 77.20504532084898 64.28197401655868, 118.5886576556478 23.36173856286124 M4.922224966490376 150.98615499728447 C49.536551845402855 100.13765388798389, 94.56516019019031 48.79650410415857, 115.62061113015453 22.787906477505125 M3.4882681672393545 155.6376366387904 C42.39345190808594 109.59738531565392, 84.38270281018627 65.37066263207369, 118.63176948901412 26.07279335271211 M5.078787258353756 157.58468382208054 C29.2774973664221 129.01931552555038, 53.677808556417546 102.47360859926157, 118.132963569352 26.212245342616157 M3.3319633586403086 163.0681630793212 C35.688430084977874 123.89196759139219, 67.16443867620552 87.82389477373687, 122.3767129038612 26.516019818443738 M5.704848665937419 162.61483161814493 C34.06680306006962 129.2545001228118, 60.725729424092535 97.86023216017435, 122.7036901773105 28.035986489687048 M5.862841694022009 166.13613463323276 C32.61257747990054 138.96990231201738, 55.61170561865708 112.39175166635843, 122.73927511564551 29.416291222064153 M6.920045961032102 166.44330747741918 C47.03091763174603 122.52032932576688, 85.56744157260553 78.84591037467332, 123.89207182183026 32.06609546588208 M6.808999417831416 169.1554649823103 C34.93199461334181 136.90535516081246, 61.48852143159688 105.35916942668862, 126.75576417679505 35.01950833491307 M8.611594040428514 170.20049236684477 C45.92532180623909 127.97397250399564, 83.29060646377 83.92750642078725, 126.30564458268302 35.29658095269721 M11.050876524515573 177.22522405833914 C33.86344431808426 147.61907023640583, 55.549525810854604 121.76635840144311, 127.33377286074733 37.736437758553016 M10.24678592591745 174.96793912836327 C47.09845572787167 132.8563001026435, 84.03644176330478 91.25935730276893, 129.78846363565003 38.11483308685123 M12.964433845492977 177.59050930243623 C46.57097782358524 139.37341296033284, 76.61447026350491 101.01403809577549, 130.28323769093984 41.01300234454648 M10.653669851261157 178.70174373824787 C37.4574904849596 150.74206697883557, 61.82150500887842 122.6400954801489, 131.88966228151256 40.73441388006286 M14.8597988752106 183.7957031463868 C56.50368452716395 137.16690864351693, 95.34557847016185 88.72915533140223, 132.6914389408101 44.955281194455935 M13.897195088250356 183.94830278844006 C41.361066747723385 149.5592684649719, 70.57668279819993 116.8905532636421, 133.67595194605184 44.38255721905084 M15.32444285811546 189.0453442719762 C60.83588601979584 135.23160586255406, 106.3934315789021 81.83423276505552, 136.64194160480506 50.7092192400667 M15.059889033675816 188.7676847458814 C46.79147352705681 150.754182345723, 81.84837831375965 111.8908276199699, 134.88806315105862 49.24237844575673 M17.566357875626053 191.56499887032135 C46.96012886663121 155.61290523698668, 78.31396371370876 121.699385317944, 136.90171345636227 54.57620808294126 M16.02253429629978 191.6570012118451 C56.48582283965155 144.77161016858648, 97.81884803182629 98.8651847177643, 137.06536357231417 54.13095519689926 M15.85270267218938 198.7545181232075 C51.415111989614594 156.82790407713256, 84.57587290185427 115.88270414487893, 139.9521840769002 58.88337641419653 M17.340314522913005 197.26616440327268 C55.636683815940714 152.28188402020757, 94.58889603947893 108.90164046654574, 138.0144170685807 56.93211782375161 M21.165097800233454 199.0394903019744 C44.52002198755406 171.2661210961201, 70.56091188904296 140.05641701617546, 138.42789068187537 64.13684749584061 M19.335609543287248 199.8118392516601 C57.19609637689983 157.46792176000156, 95.86633207144052 112.38350044427368, 139.6851295076585 62.312206873478125 M20.950389504205276 204.5150790884073 C45.72427673785457 172.4077123822707, 73.61855598501535 146.3699728438806, 142.73995035270627 66.60906251899043 M21.286259254213263 203.28378172394886 C63.35887882700983 157.22062940441654, 104.80809001819591 108.5837865717212, 141.2317209983098 66.86989644735196 M23.463826807542304 208.30689483406871 C57.18064166405182 170.8242298652331, 88.12195010086721 131.47373424033015, 142.20258780484943 72.00145724565405 M25.206240706472258 206.36821008185774 C54.30700400102923 173.1760221809117, 83.20991960600506 138.9945021324201, 141.5767536583349 72.36137084253747 M27.48800248368208 208.95070414052117 C65.4688879997237 163.9346351371828, 106.51380100920011 119.44583016425902, 144.0005485907328 77.78649494717118 M27.002109075845524 210.3900144621055 C51.73694125966582 181.98070882297304, 78.08107942278025 153.06443528355513, 143.81604481750546 77.60485749053058 M28.707853056062106 214.01742985932714 C69.64119123686484 168.16390392514222, 113.03002733819771 120.62162646446001, 145.5959220127844 79.09679514488154 M30.285497663114313 214.5002568764109 C62.977729620104455 172.96157213568523, 99.5681662306525 132.81365919183537, 145.0629899305933 79.93225569782727 M30.741717827110364 214.98344151182633 C71.6732197741114 167.3236544350126, 113.95082738733184 121.19708372591147, 147.13496403646076 86.6142623507932 M32.84167692305036 216.10896163126986 C75.05437658945192 166.82807675751738, 117.85072248628578 118.08217728590064, 146.29288549039865 86.64076538659187 M32.89210276228334 217.8743936100268 C78.78184623855167 169.80882349622925, 125.47627239127883 118.24213701935793, 147.72762855116136 87.40269984557756 M33.8178183484539 219.0914536488467 C79.35967372762855 169.13375949834358, 123.73053616165554 120.07160080832675, 148.05996028866477 87.38800087265201 M36.45703466400903 222.36196817526832 C73.20991736313152 181.49247574872493, 108.2295075397841 140.971991856993, 148.66956387739015 93.36287254235651 M37.47184864409667 222.44760098563745 C70.80061348905937 184.03346782344752, 106.67414725481166 142.47744856982928, 149.15687192323935 94.20955372928586 M40.48082505572499 228.40771305911335 C77.74276338740023 182.08799882969757, 118.05743354541238 138.41436474226424, 150.25041140454667 100.25389622180148 M40.36071361075999 226.5081531533608 C74.90639410765993 187.60558474209626, 107.46462860781051 150.3288294467693, 148.8605054358657 100.10288202232107 M40.785129210868675 231.1333323631244 C80.40402780046446 187.33197945278837, 117.0172735665305 142.3851665166963, 148.28792015606845 106.63888123547498 M41.80893717422505 229.36753153873553 C80.0044306853488 186.35295432070149, 116.36264438849847 143.91983156065805, 150.90358787732507 105.53545401347641 M45.65606421085862 230.93626727841837 C70.33710806986137 201.62525224874622, 93.67276191479587 173.03622831127296, 151.12718290539294 110.49109418493948 M45.033239443254146 232.5619102430348 C67.27523316739897 205.58583285223827, 88.5792726918385 180.76426200443282, 149.91142442339867 110.6134098394706 M50.28285477115128 233.64295356700342 C83.69585210607787 191.3182617723995, 120.863373905771 150.26565861973666, 150.0156361759577 116.8189579217575 M49.018682535647486 232.78497356342297 C89.14444179382062 187.81961976085515, 127.01818430027262 142.85448003875788, 151.2143983748678 116.26906151202242 M51.7252464441747 232.85085450021916 C77.1888763983059 204.39007023658496, 104.5727997035876 177.42147707747876, 149.47806024120018 121.29105154749155 M52.92358378117686 233.79244893139594 C90.20528225908419 193.79686355317688, 124.83522233844663 152.86642004537183, 150.6604711575137 121.44839291785061 M55.35215144538533 238.08171834007373 C87.48638338451514 200.1478460510624, 119.74890644941127 165.86541553854525, 149.6915791245579 125.86111041370411 M57.955661547642464 236.1178643941181 C92.64385269946192 194.183921662896, 129.77510332082954 153.74147613105646, 152.42768232211762 128.29855981867394 M61.15300282721118 237.87832085790677 C87.0979290010386 208.63797496412712, 113.8090100685462 180.46558719104914, 152.2046015704778 135.14773570218043 M61.12088941481606 237.73179113308532 C91.79032091327987 201.49933519088557, 124.72200557470728 164.6072072248558, 152.18059051547021 134.11009943143384 M63.488518363089796 238.44830365528088 C86.17210271987955 220.2626694140002, 102.26541049938702 196.67732268671512, 150.96788007340695 143.30468484470583 M64.41176005847895 240.24818178501647 C92.21322565569152 209.95515444263344, 120.42974589401626 178.0680145160254, 149.53883250936235 141.74972084807195 M70.77781860544914 241.7797550035357 C100.10237164658722 205.18973572355978, 130.54544823843239 173.6160926917359, 148.02162893577335 152.13645236262005 M67.93190330840284 240.60245128140744 C90.68264788468187 217.63525478715087, 113.85975177169917 191.01224509421365, 147.20174125856576 151.3383858750842 M75.21736785671725 242.020919424011 C93.90851326973869 215.97520028336305, 117.6799218737985 191.10093494211253, 147.21446523899547 159.47797944703996 M75.05252711935951 240.99368642875422 C103.28881808046097 208.5834275053515, 131.08609626637218 177.0363912123635, 146.10478687184266 158.19351861374378 M81.18779708235057 239.3693264287148 C95.61530701048515 219.50793382051776, 114.68312986337375 203.60589523621798, 145.95417272752033 165.83849227975088 M80.25674048414918 240.3362746492211 C105.41983753225495 214.2438107762419, 129.5784313468844 185.35357213963613, 144.60784049598382 167.0353437809922 M87.56525808477716 239.16853303898688 C108.50852338655417 215.66363181143583, 128.52411063528322 190.0680994941433, 144.20693792478542 175.00766371231538 M86.88840760754363 238.91914649930413 C109.61147373903924 213.45665670885202, 130.95043587515056 187.5304679627976, 142.9319104317705 174.1555483885483 M90.16006932945342 240.0613812668352 C104.32637928614223 223.76299938504545, 116.18503252878298 209.75453892440214, 143.52840916220924 180.9259036858503 M93.02829373234303 238.1215331511675 C113.0785308050298 215.84494263727566, 132.01185031269253 192.64302706088927, 141.6277011629649 181.8500721626852 M95.37201108981695 237.84145021382233 C108.7774155155027 224.524206806401, 123.59576929930974 207.75827561478974, 134.28569308635275 196.13942209481422 M96.58686028432872 239.82691849153002 C112.28015742993324 222.29001371327476, 125.54065443190868 205.10823779082455, 134.2351098634718 196.43667040801768" stroke="#ced4da" stroke-width="0.5" fill="none"></path><path d="M111.76961590143304 14.867960066989696 C120.48293365452723 20.25479876583145, 128.10399679114565 32.58016735875974, 133.90587796998557 44.599940369612725 C139.7077591488255 56.61971338046571, 143.7966483450343 72.1544557755397, 146.5809029744725 86.9865981321076 C149.36515760391072 101.8187404886755, 151.58047371148103 118.19626697887085, 150.61140574661476 133.5927945090201 C149.6423377817485 148.98932203916937, 145.46983468330927 165.60506122111576, 140.7664951852749 179.36576331300316 C136.0631556872405 193.12646540489055, 129.89074528333464 206.35134335595654, 122.3913687584085 216.15700706034454 C114.89199223348236 225.96267076473254, 104.79233870894573 233.9952255637317, 95.77023603571803 238.19974553933122 C86.74813336249032 242.40426551493073, 77.51192230875185 243.050235071845, 68.25875271904223 241.38412691394166 C59.005583129332614 239.7180187560383, 48.78220009811268 235.38515278798786, 40.2512184974603 228.20309659191105 C31.720236896807915 221.02104039583423, 23.298247647393772 210.23480793348224, 17.072863115127923 198.2917897374807 C10.847478582862074 186.34877154147918, 5.611379471112604 171.45008634042543, 2.898911303865205 156.54498741590191 C0.1864431366178052 141.6398884913784, -0.21530702841167937 124.34893360805759, 0.7980541116435234 108.86119619033968 C1.811415251698726 93.37345877262177, 4.563990602465414 77.25734148993668, 8.979078144196421 63.6185629095945 C13.39416568592743 49.97978432925233, 19.790160493454522 36.87634430792997, 27.288579362029566 27.028524708286653 C34.78699823060461 17.180705108643338, 44.74245961240542 8.970784785299799, 53.96959135564669 4.531645311734607 C63.196723098887965 0.09250583816941571, 73.39538472345247 -1.1226367317965564, 82.65136982147719 0.3936878668955046 C91.90735491950191 1.9100124655875657, 103.75644583642939 10.095949732917738, 109.50550194379505 13.629592903886973 C115.25455805116071 17.163236074856208, 114.9830128610472 18.61278240917302, 117.14570646567114 21.595546892710914 C119.30840007029508 24.57831137624881, 122.9828928977794 29.89872903065066, 122.48166357153869 31.526179805114353 M45.04030516977419 9.49064793138308 C52.584559468043565 1.8971303556790104, 62.619481960739776 -0.6896761119615226, 72.1539804859775 -0.768879582843752 C81.68847901121522 -0.8480830537259815, 93.0869282254435 3.289932390655949, 102.24729632120051 9.015427106089703 C111.40766441695752 14.740921821523457, 120.12121294217152 23.07462083356645, 127.11618906051956 33.584088709758774 C134.1111651788676 44.0935565859511, 140.58766851713213 58.09730497799728, 144.21715303128875 72.07223436324364 C147.84663754544536 86.04716374849, 148.8594689997779 102.08355073415933, 148.89309614545925 117.43366502123689 C148.9267232911406 132.78377930831445, 147.43314461868675 149.7034368914856, 144.41891590537693 164.17292008570897 C141.40468719206712 178.64240327993232, 137.3183826616947 192.9459461045852, 130.80772386560034 204.250564186577 C124.29706506950599 215.5551822685688, 114.16667834161765 225.5595063742743, 105.35496312881084 232.00062857765982 C96.54324791600402 238.44175078104536, 87.6430232268193 242.39226833803957, 77.93743258875945 242.89729740689026 C68.2318419506996 243.40232647574095, 56.08380737807285 240.4809166341007, 47.12141930045178 235.03080299076393 C38.159031222830706 229.58068934742715, 31.016548837902157 220.77496818760193, 24.163104123033037 210.19661554686962 C17.309659408163917 199.61826290613732, 10.13802886721989 185.43881734298003, 6.000751011237057 171.56068714637016 C1.8634731552542236 157.68255694976028, -0.6462776363020547 142.23785566557913, -0.6605630128639604 126.92783436721031 C-0.674848389425866 111.61781306884149, 2.472112661413631 94.57810202258256, 5.915038751865623 79.70055935615719 C9.357964842317616 64.82301668973182, 13.623979513959878 49.32135096927908, 19.99699352984799 37.66257836865806 C26.370007545736105 26.00380576803704, 40.0624419773929 14.303007788057496, 44.153122847194304 9.747923752431078 C48.24380371699571 5.19283971680466, 44.612344447364734 9.846563320420833, 44.5410787486564 10.332074154899558 C44.46981304994807 10.817584989378284, 43.440803345583696 10.562673795344852, 43.7255286549443 12.660988759303436" stroke="#000000" stroke-width="1" fill="none"></path></g><g transform="translate(275.4183673469389 72.0678903350786) rotate(0 55.5 13)"><text x="0" y="18" font-family="Virgil" font-size="20px" fill="#000000" text-anchor="start" style="white-space: pre;">Dark Mode</text></g><g transform="translate(10.000000000000114 13.992327694895337) rotate(0 120.91836734693868 70.05515447691792)"><path d="M14.223238720308304 37.53931966198567 C14.223238720308304 37.53931966198567, 14.223238720308304 37.53931966198567, 14.223238720308304 37.53931966198567 M14.223238720308304 37.53931966198567 C14.223238720308304 37.53931966198567, 14.223238720308304 37.53931966198567, 14.223238720308304 37.53931966198567 M8.328725564449016 52.475891275535716 C15.353719593347929 43.23156111174791, 18.88780263718792 40.06666388124725, 27.132248343196583 29.160808807184782 M8.19525414441425 51.67697477733661 C11.475277044314755 45.84107262609744, 17.457900809209484 40.19681988105721, 28.263374875527692 27.769650962149587 M2.6357538607367275 66.63980149626785 C13.815255258737594 51.308214410268945, 24.473697701206213 39.39251676871003, 41.262378228193654 18.858568187395882 M0.49437892440938924 64.3302500393247 C18.353201661604814 46.85557630809603, 34.182257105035006 27.60778636975114, 41.586538515350355 18.3997895285141 M2.6485099976485458 70.81122869172724 C13.702883403775253 55.91268456892668, 30.06273977028937 39.59157810858957, 44.29619436412415 19.096816089063786 M2.059650627670237 69.98058046878906 C11.956785695076714 59.5559543335296, 20.61495132464937 47.76740536588499, 45.23177868015429 20.687335180178188 M3.1863022288608676 76.38006184802464 C17.548305390251628 58.49635736267214, 35.19363398777432 37.57748992956176, 53.39435921135119 15.231119100947797 M2.01512604302944 74.5343955791842 C20.576037116923306 54.9933611037487, 37.09777821727774 34.749089770827055, 53.72114699045888 17.604004408244908 M2.288421463917217 79.197599578152 C24.429582859119503 58.63026708338785, 40.32332371775635 34.98952894152362, 62.008038668503744 14.151255808044812 M3.995860240186772 80.97476888584583 C18.915602687990717 60.036038781841654, 36.417846726006886 41.762896856870356, 59.22071413004933 15.208460075054905 M5.686137775389575 86.78161298576958 C22.95030597364522 64.16179642582459, 42.12196903451878 41.083797848208995, 67.77808614512531 10.731962323346796 M4.1824030768704645 84.00398076977797 C19.714298255504186 68.79591335805323, 34.68949066948676 52.198238800023276, 67.0022539186254 12.534556945943894 M4.395877485849944 90.42721692453767 C23.29496379233644 69.86827811919389, 41.14705019076977 47.22395075177232, 75.6312751847974 12.01915683073678 M4.456476285808769 91.59188973698463 C31.398905648029668 58.88276392656296, 59.77540105408964 26.90491212284838, 74.10197593492484 11.215066232138657 M5.624518312822843 95.80832209700269 C30.024194673979608 71.00228781352617, 48.55251745166443 46.82627023032865, 85.93406684201604 5.793715042092863 M6.868768619682456 93.01488451735598 C22.21325807407087 76.06209157732755, 37.926544853241516 57.28542443701466, 85.03679289359992 3.482951047861043 M9.17774004988977 97.65444043704767 C29.249648273902373 75.07191037807166, 47.155778967035424 54.76771269280744, 90.43583881247665 5.587757603971362 M9.609786532229272 96.97018944711883 C34.47897721557837 67.60345875846113, 59.394272589895564 38.93939332110708, 91.31004977550234 4.6251538170111175 M11.67743776962272 100.84271804833287 C41.94521941759987 66.78730275685648, 71.73860367581047 36.68293503125107, 96.10442367966576 4.607138148027595 M12.789767381177462 100.10539740727717 C41.31981015201234 68.53191398346945, 67.76408921849449 36.37063216844094, 96.80956207427485 4.34258432358795 M18.18672182358418 102.77293520429582 C44.157385182803125 69.69538906609716, 72.73513327420245 36.22196046079374, 101.06933804514588 4.747730697699062 M15.626179428245763 102.83096982361228 C38.56852698160582 78.36682655207838, 59.910243241874255 53.23575502479544, 103.31334492663623 3.20390711837279 M20.522799784346148 105.25192550859677 C38.23406755290797 85.69883412670372, 54.98368276236991 66.09584479481256, 107.49525476047953 0.9327530264232635 M18.319103781162426 104.64215582712816 C55.24157329414223 64.91358997621177, 90.17689768485914 23.571281415828963, 108.92558534430523 2.4203648771468877 M23.506212561452138 109.84973757422767 C53.569812150142354 68.64488450419458, 84.41186177143133 33.629447926406485, 113.20700292722918 3.4877666576376924 M21.86297050962721 106.91265393316053 C44.43791811013061 82.71282051392272, 67.52083294666855 56.202099872752115, 113.2641422140006 1.6582784006914864 M24.64948022747415 108.80289250484883 C51.941305410397426 79.98788809052202, 74.80026485985381 52.22376340877674, 119.97062692594788 -0.23903271544291016 M25.29770447136837 111.23536952271341 C60.06481273516208 72.99954898975037, 92.92843004600968 35.44065738038324, 119.30410532643161 0.09683703456507686 M27.750279104984173 113.12525515412048 C54.437232065508965 82.30791631615767, 80.34339287889469 50.142218408372244, 125.83809127122657 0.27173267128727474 M26.86440239911414 112.97078610179082 C63.66724575477123 71.91489734216921, 99.27252583334655 29.784534101585862, 125.28500023134546 2.0141465702172283 M28.484618853525703 116.71890538503459 C54.38561026358108 88.9912690245206, 80.70949355263727 61.481483722317726, 130.67681187260877 2.29323643082018 M31.16100998756427 116.79533656072846 C54.01911421550183 90.53190143511527, 75.98887129184047 62.75473500789991, 129.80281949844192 1.8073430229836234 M34.09548829567076 119.27739555125146 C67.47672798688149 84.4541860763558, 98.61289189764017 44.80353343697209, 135.20224283165697 1.5104150865933264 M34.39346771944703 119.04216065553038 C66.70617636772315 80.61694360721131, 98.68559111243995 45.31852484748187, 134.40510951443974 3.0880596936455333 M38.29815056197234 120.88720259598577 C77.42824380733816 74.75560859202321, 117.50209989985537 32.939620980538535, 141.25893547094321 1.640258492266966 M36.843506010471664 121.74005710675502 C62.44219381206027 93.89415349929926, 86.59998044684329 66.48733844513634, 139.4345295120672 3.74021758820696 M42.28090697500244 123.42156637289781 C69.9128593047441 91.29801131518036, 100.02713176378984 54.26590253617891, 146.06977445001098 1.7879715108330885 M41.431909093366414 123.44482192040641 C62.655545187298884 96.33379651400325, 85.8875576512836 70.89589686027608, 143.84058768602404 2.7136870970036426 M44.95433316531405 125.89665132520233 C69.08019194521152 93.76980492199606, 96.19364661787992 68.24970734922788, 149.26856456244172 4.104941076174711 M45.53025113384053 124.03291006704305 C71.44147817304749 92.14954815638231, 99.47075175336785 61.54956530425899, 147.77472799004795 5.119755056262349 M47.295983926488674 126.62009438678234 C74.84841911121124 96.33495185702306, 101.2995028855963 65.12232077224226, 153.773502967779 6.126059551283788 M48.868101085631764 126.28748338289171 C91.81661752998268 77.91474630571574, 133.4770177944719 28.722021228025127, 153.02630236883874 6.005948106318783 M51.91174738907932 129.0377475008526 C82.48237431981661 91.85776199628023, 117.88236629304075 55.16765302288577, 156.81976598859478 4.427691789820614 M52.65687686444937 127.18265308851088 C89.36968084502803 83.5091645072194, 129.64316824229348 37.94467054662525, 159.61765755512465 5.451499753176989 M56.69266793363897 130.3728063606278 C84.62940244865102 97.63639435386624, 108.88327882142124 67.66950686378607, 163.5526861974611 6.738546395445439 M56.80916826100258 127.96010852945903 C84.21242946377753 97.24330214980824, 110.94412837721157 66.17874014642024, 162.95981215663394 6.115721627840969 M60.47176910374915 130.26493914999102 C100.18429565692895 82.82591906500673, 144.12157457197657 37.0545705730822, 168.62092950392145 8.05054698115022 M61.158059854029176 130.20574591696297 C92.8772651795727 93.59853750317214, 126.94304119902748 55.192616316189586, 169.00813374306637 6.786374745646427 M62.58540777996285 132.61702906215697 C88.63245919777849 103.94429853649672, 111.41659442342072 78.55435811090163, 171.20908195155727 6.276799230818014 M64.58098518423839 133.13391084658116 C86.42812843821133 106.76497009086496, 110.63152910178206 80.7864389322973, 172.85742564315962 7.475136567820172 M68.53009709283305 134.2343030403404 C89.1306380098544 105.32382338506324, 113.83018848438559 78.50201947526587, 174.5990038919311 8.098333417886309 M68.21904966733945 133.6640270388721 C109.15974903654606 86.71726624296463, 151.63181078065406 41.04230948797556, 175.86578111863247 10.701843520143441 M72.93144739392228 135.95404135797878 C103.62447202035935 103.88095126675586, 129.26477495333796 70.60836857543214, 181.13877095559596 12.093813985569838 M74.00847156505115 134.98780591961702 C102.85763596302604 100.75479857134525, 132.05974413972285 66.48516863586481, 180.18602433519422 12.061700573174718 M78.51310722681202 133.77528719895517 C105.33825958865208 106.50213786347052, 127.02599643392108 76.84322975728706, 183.21161502310486 11.869249127083336 M77.21202295611121 135.13645620004272 C99.39710987428876 109.34486697220117, 121.26865274645954 82.88871658637271, 183.2971513335541 12.792490822472487 M83.65811750104578 136.70558917626153 C113.71894452471876 97.92126302699887, 147.1485598351003 62.06180342503927, 188.89274713803923 16.697119526309848 M83.54288391021939 136.2649263954849 C115.90763421345035 98.26658506583726, 149.02670801299053 58.24554762569235, 187.2236529424498 13.851204229263544 M89.44149828919556 134.4189683935581 C110.82417514150046 109.37424131555841, 134.85720602004127 83.1011910363965, 190.16677070994265 16.6084112962413 M87.75972928510394 135.74737188694758 C126.13341862549328 94.35171149237738, 163.1000351748345 51.25938963652844, 192.31542798158117 16.443570558883565 M93.22342591383335 137.36678970450518 C122.72704692818024 100.34714536002473, 152.82265377653056 65.41469310961537, 197.30420928239658 18.805292620760767 M92.8224058134931 137.7255261804348 C118.21007790607848 108.96732194398413, 142.94684443864475 79.90060907212411, 195.18681102968588 17.874236022559373 M98.24241003450265 136.88863297209474 C125.06341845664971 104.65769921272167, 154.377718673179 70.37556280423169, 199.73497876494451 19.998437112860216 M97.04760919008663 136.65707216628226 C126.69021168882924 103.6015633240172, 156.47688349763786 69.44110966902606, 199.1525446564637 19.321586635626687 M100.64788044478499 136.87026013020977 C125.99429065561183 109.27050874798411, 150.17641941556545 80.00574481199247, 204.42491520116795 18.819700456422638 M100.70397086862229 138.41110918071672 C138.0876655670171 97.51059441476912, 174.4480412833715 56.052448102041055, 204.16680719065238 21.687924859312247 M106.37365930422382 138.0809385418423 C124.34931822020688 116.50383994092519, 148.20599429353825 88.85234164704035, 208.74924700061044 20.15944376444004 M106.4480302937998 138.04297636407395 C129.44730195857488 113.0595904921774, 153.27547374658494 87.85675597682737, 207.2591849519517 21.374292958951813 M110.17054793539118 137.83140806065256 C142.85458049615096 101.80035770503954, 179.3798039345486 60.526527285653216, 210.86912270685343 23.57921022079546 M111.91932169834745 138.88971972235794 C131.50540495409987 115.59111962857624, 151.0039565211611 93.13970939803613, 212.4737000190994 24.130649645772166 M116.54344488186854 142.8394618705236 C149.0927937300654 99.49804357823794, 186.34031855627774 59.88038321348954, 213.2929651714594 25.158467598926364 M114.23999216100293 140.87317296679547 C143.01376670032872 107.72259077965745, 172.23444651100328 72.58585482270992, 213.99266440381416 26.34011259555453 M120.62481814017094 141.56726984377906 C139.60585984971328 115.83445155032648, 159.06524331811525 95.75569876220257, 217.18935349599093 29.379027422270283 M120.45077383843757 140.27478087205395 C156.5785780374511 99.26358752576674, 191.44819116136094 57.081499691659474, 218.01206199281484 30.34087760908018 M125.95881972488937 141.91702224452473 C161.22814730675577 98.63962332869427, 200.23160239651858 53.829662278428856, 219.32414108999146 33.99062580381916 M126.85759853039858 140.86874297958292 C160.88587739603213 101.20163650265205, 197.15532178248893 60.480788124750234, 219.2411666058011 32.72929945168481 M131.3429349875863 141.30412434619814 C159.8771316596412 107.52848013165081, 185.31547586670777 76.26246549165725, 224.405160526033 36.15947134723328 M131.43574699860469 139.43270821516364 C157.0347840859707 111.68835363532315, 181.07211365438337 83.52311581437064, 222.80974685050126 35.94593975437246 M136.4848055298242 139.2963251722368 C161.31567568224108 108.81063928157067, 187.37902723976174 81.90349637442677, 227.33145965567803 35.824406825950135 M137.04917187977463 139.8244036295774 C159.3491661566087 116.10859883412625, 181.70388834815685 90.60918644716966, 226.079802238634 37.06922869292437 M141.62722920316568 139.98871749607818 C166.04841690625213 114.41480565235156, 187.1957874261803 87.15436079651882, 227.5061835514986 39.58132834362999 M142.63799768562725 138.7941343986054 C168.02260826177283 107.95539834475525, 195.71341750826846 77.8584525191266, 228.5209451279276 41.13738414834455 M147.17316010917315 138.37873784115982 C179.81932263528398 106.82441182599672, 206.653058530975 69.93929835397446, 231.08581062303818 44.03934701326483 M148.40602080288122 137.79728382302892 C168.8582287129457 116.44739097108115, 187.55205408814032 94.55085347476582, 231.52213683808185 43.94207338596874 M153.31070859940917 138.7411664809192 C171.1094601180762 118.2324063803377, 187.49021020738886 100.45501296369682, 234.6687984428688 46.724046438514875 M155.00820949325532 138.8068133286292 C184.0475023460907 104.49370590809599, 212.64269447752403 71.00320644051159, 233.64283347682496 46.36917053680091 M160.9502593334172 135.4937082783482 C176.01252043283586 117.77350443860095, 192.74531742820946 101.91203857618311, 237.57664277558138 51.69777313348597 M162.0503219514493 136.6163433057419 C190.36902189402258 103.20526336457763, 219.17493877280145 70.88237434083665, 236.45654496890415 51.456547017290646 M168.06917613376922 135.34554058710725 C185.6173705361774 114.53148402772754, 205.98791877940155 94.94677337299751, 235.38340883870052 57.142250300724555 M169.99611116019136 134.42620101037116 C190.86673026027742 108.43424450938248, 213.8547309913294 82.73090738480084, 237.64286631700026 55.414185307328154 M175.3049790730373 129.40818451085647 C189.36057573084685 114.9830833940632, 202.5488770666912 102.9961680100994, 239.01196392580766 59.544802374113615 M177.32300197720983 131.39179182352086 C195.34899275973476 111.86428875865451, 213.13477218186125 90.12550750948006, 237.64621022485096 59.24790349314016 M185.58034447379333 127.57050490325622 C199.89295815388573 108.21655743916756, 220.19433188704141 86.62532396974046, 240.91956769644628 64.52625921664514 M183.70959113523287 128.43609925119512 C199.78653403565937 110.43103033399888, 216.79184002104205 90.9963664719878, 239.423897387156 65.0247594650624 M189.69628199558093 126.60958162729845 C202.9863227409546 113.82716935330545, 212.3549710899752 102.42735914256589, 241.47439994419793 67.2536327622022 M191.19132432896032 125.79805618372963 C203.07512605413086 113.32170347146666, 214.95699101691326 98.31903116385745, 240.38518425765315 69.7232275593217 M198.02078046097205 125.09396703664339 C215.73938625255087 105.56078642889166, 231.20827220606674 88.42650170317913, 241.8290328286061 72.7774403737767 M199.4116420411204 123.37330237712837 C210.32703037806485 111.38542779614849, 220.76407348620612 98.65545276336391, 242.8272352810422 73.00802191625371 M204.76986688455764 125.00397639539689 C214.217305010011 113.59235984252295, 224.56802354841255 103.95545773740335, 243.60907670123333 74.93496232480616 M205.46553857146029 123.77197487284094 C216.5422941010578 109.74848958252394, 227.1918809234511 97.33192918073127, 245.1862687190419 77.57085396163971 M218.72196413972938 112.74836753298655 C228.1568635373513 101.8713147809301, 234.55125108235882 93.21092303774456, 241.97758981575598 90.27233760140138 M220.17641970352793 110.7728876526387 C226.7724380449291 104.94067232867977, 233.58055519988267 96.55820980914622, 240.66446636048485 88.49002820893423" stroke="#ced4da" stroke-width="0.5" fill="none"></path><path d="M124.62409614789661 0.6031721972687194 C139.50842580594033 -0.14077902924724006, 156.2008269581355 3.408480596275259, 170.3794187451638 6.9712258970721805 C184.5580105321921 10.533971197869102, 199.14459241222835 15.495359613999778, 209.6956468700663 21.97964400205025 C220.24670132790425 28.463928390100723, 228.25726483822817 37.185888870265295, 233.68574549219147 45.87693222537502 C239.11422614615478 54.56797558048475, 242.68204913327577 65.01688898910932, 242.26653079384616 74.12590413270861 C241.85101245441655 83.2349192763079, 237.7923929144836 92.47611521222238, 231.19263545561387 100.53102308697075 C224.59287799674414 108.58593096171911, 214.28211969996258 116.53957269251786, 202.66798604062774 122.45535138119882 C191.0538523812929 128.3711300698798, 176.47016072856982 133.23052655989483, 161.50783349960489 136.02569521905653 C146.54550627063995 138.82086387821823, 128.50712541679943 139.7641096845547, 112.89402266683817 139.22636333616896 C97.28091991687691 138.6886169877832, 81.57114681996758 136.52065991756757, 67.82921699983734 132.79921712874196 C54.0872871797071 129.07777433991635, 40.86041930764289 123.7841247864193, 30.44244374605671 116.89770660321534 C20.02446818447053 110.01128842001138, 10.221349586251744 100.2182760176041, 5.321363630320249 91.48070802951824 C0.4213776743887552 82.74314004143238, -0.41061254199893216 73.42743774067337, 1.0425280104677483 64.47229867470024 C2.495668562934429 55.51715960872711, 7.0636436545526164 45.65365519072895, 14.040206945120332 37.74987363367949 C21.016770235688046 29.846092076630036, 31.056511401585162 22.692740609100603, 42.90190775387404 17.049609332403506 C54.74730410616292 11.406478055706408, 70.12264847297492 6.790422554405517, 85.1125850588536 3.8910859734969137 C100.10252164473228 0.9917493925883107, 123.8280085361164 -0.0024893662623502455, 132.8415272691461 -0.3464101530481116 C141.85504600217578 -0.6903309398338731, 139.50259300386162 0.4702661188601951, 139.19369745703176 1.8275612527823455 M176.24162461603117 8.521423790911712 C190.2532396810256 11.681160082172623, 204.3017568037534 17.78274983535, 214.32857010937846 24.763946308584337 C224.35538341500353 31.745142781818675, 232.10399763021232 41.64062008133042, 236.40250444978165 50.40860263031773 C240.70101126935097 59.17658517930504, 241.46611288014483 68.62831789569736, 240.11961102679436 77.37184160250823 C238.77310917344388 86.11536530931909, 235.34312642540633 94.97618435085487, 228.32349332967885 102.86974487118292 C221.30386023395138 110.76330539151097, 210.0898567854825 119.09528036614844, 198.00181245242948 124.73320472447654 C185.91376811937644 130.37112908280463, 171.1104429462416 134.3917082361072, 155.7952273313606 136.69729102115144 C140.4800117164796 139.00287380619568, 121.58453787434293 139.4865181090631, 106.11051876314349 138.56670143474196 C90.63649965194405 137.64688476042082, 76.36586430134736 135.25385701445998, 62.951112664163944 131.1783909752246 C49.53636102698053 127.10292493598922, 35.19959704434627 121.11818258937657, 25.622008940043003 114.1139051993297 C16.044420835739736 107.10962780928281, 9.43311018925653 98.08869821692, 5.485584038344342 89.15272663494336 C1.538057887432155 80.21675505296673, 0.395655622546774 69.54988561708886, 1.9368520345698812 60.49807570746991 C3.4780484465929886 51.44626579785096, 7.096362336749522 42.36480528788272, 14.732762510482985 34.84186717722967 C22.369162684216448 27.31892906657663, 35.34061996806664 20.8768480883755, 47.75525307697066 15.360447043551645 C60.16988618587468 9.84404599872779, 74.30007854448476 4.411356941097793, 89.2205611639071 1.7434609082865364 C104.14104378332945 -0.9244351245247202, 122.49567107604565 -1.7995061891580864, 137.27814879350476 -0.6469291533158952 C152.06062651096386 0.505647882526296, 171.7268327848922 6.832171030073444, 177.91542746866176 8.658923123339683 C184.10402215243133 10.485675216605921, 175.33631598189922 9.169963497713443, 174.4097168961222 10.313583406281538" stroke="#000000" stroke-width="1" fill="none"></path></g><g transform="translate(33.00000000000102 71.04748217181336) rotate(0 52 13)"><text x="0" y="18" font-family="Virgil" font-size="20px" fill="#000000" text-anchor="start" style="white-space: pre;">Excalidraw</text></g><g transform="translate(179.84693877550956 57.527074008548) rotate(0 22.5 25.5)"><text x="22.5" y="18.5" font-family="Virgil" font-size="20px" fill="#000000" text-anchor="middle" style="white-space: pre;">This</text><text x="22.5" y="44" font-family="Virgil" font-size="20px" fill="#000000" text-anchor="middle" style="white-space: pre;">post</text></g></svg>
