<svg fill="none" xmlns="http://www.w3.org/2000/svg" viewBox="0 0 288 203">
  <path fill="#4A6EB4" d="M286.879 97.59C286.691 95.012 286.603 92.404 286.283 89.82C285.044 79.445 282.019 69.215 277.705 59.476C276.506 57.103 275.323 54.71 274.065 52.353L273.121 50.582L271.953 48.779L269.582 45.187L267.158 41.626C266.957 41.343 266.739 41.009 266.552 40.771L266.007 40.111L264.918 38.789L260.551 33.508C259.428 32.233 260.137 33.053 259.84 32.725L259.661 32.549L259.304 32.197L258.587 31.496L257.151 30.098L254.271 27.313C252.411 25.393 250.292 23.756 248.189 22.106L245.04 19.629L243.462 18.397L241.781 17.309L234.975 13.108C232.664 11.797 230.227 10.712 227.859 9.526C226.66 8.963 225.49 8.337 224.267 7.837L220.554 6.448L216.828 5.126C215.596 4.667 214.349 4.257 213.064 3.97C210.523 3.335 207.987 2.702 205.455 2.07C202.906 1.547 200.322 1.211 197.762 0.851C196.478 0.699 195.208 0.466 193.921 0.388L190.064 0.218L186.227 0.07L184.317 0C183.68 0.008 183.043 0.057 182.407 0.084C179.863 0.203 177.334 0.361 174.825 0.549C164.817 1.785 155.12 4.045 146.247 7.889L144.569 8.539L142.952 9.336L139.749 10.943C137.644 12.056 135.49 13.009 133.552 14.361C131.587 15.627 129.631 16.888 127.686 18.14C125.755 19.417 123.88 21.054 122.027 22.486C118.021 25.461 115.556 28.32 112.59 31.175L111.213 32.525L110.158 33.781L108.072 36.275C106.725 37.963 105.254 39.504 104.067 41.267C102.884 43.021 101.709 44.761 100.542 46.49C99.979 47.361 99.356 48.181 98.855 49.084C98.366 49.99 97.878 50.895 97.393 51.795C96.435 53.584 95.485 55.361 94.542 57.125C93.725 58.947 93.003 60.797 92.237 62.592C90.572 66.121 89.593 69.85 88.46 73.397C87.838 75.155 87.524 76.989 87.144 78.772C86.759 80.547 86.377 82.307 85.999 84.047C84.279 94.231 84.277 103.85 85.252 112.578H88.51C88.469 111.361 88.541 110.129 88.599 108.883C88.674 107.395 88.751 105.885 88.829 104.356C88.835 102.831 89.182 101.301 89.379 99.752C89.616 98.211 89.858 96.65 90.102 95.07C90.797 91.955 91.667 88.806 92.541 85.627C94.705 79.361 97.395 73.027 101.179 67.106C102.124 65.626 103.051 64.129 104.037 62.663C105.138 61.274 106.247 59.874 107.364 58.464L109.027 56.355C109.59 55.658 110.273 55.044 110.889 54.384C112.143 53.091 113.407 51.788 114.678 50.476C115.932 49.163 117.455 48.083 118.827 46.871L120.936 45.096L121.989 44.205C122.306 43.932 121.704 44.453 121.825 44.359L121.98 44.252L122.292 44.037L122.915 43.605C126.205 41.388 129.727 38.652 132.781 37.318C134.39 36.519 135.814 35.609 137.534 34.88C139.26 34.165 140.994 33.446 142.737 32.724C144.425 31.913 146.296 31.501 148.085 30.927L150.779 30.089L152.122 29.665L153.515 29.382C155.356 28.999 157.204 28.614 159.061 28.23C160.909 27.857 162.832 27.804 164.698 27.539L167.509 27.193L170.359 27.129C172.258 27.123 174.144 26.971 176.041 27.059C183.643 27.286 191.154 28.68 198.45 30.696C200.24 31.309 202.033 31.926 203.829 32.544C204.739 32.808 205.608 33.187 206.461 33.607L209.045 34.789L211.649 35.908C212.505 36.306 213.307 36.822 214.14 37.267C215.776 38.218 217.483 39.038 219.074 40.058C222.161 42.257 225.365 44.257 228.203 46.783C229.675 47.971 231.179 49.123 232.453 50.545L234.461 52.561L235.471 53.565L235.977 54.063L236.231 54.313L236.353 54.434L240.345 59.213L241.446 60.526L241.997 61.182C242.163 61.391 242.238 61.549 242.364 61.733C242.817 62.452 243.287 63.155 243.764 63.854L245.214 65.94L245.956 66.975L246.637 68.213C247.533 69.873 248.504 71.494 249.455 73.131C250.339 74.801 251.016 76.569 251.827 78.276C252.202 79.143 252.65 79.985 252.975 80.87L253.867 83.559C254.16 84.457 254.491 85.344 254.814 86.235C255.163 87.12 255.467 88.016 255.655 88.944C256.121 90.784 256.587 92.62 257.051 94.452C258.404 101.888 259.231 109.479 258.786 117.063C258.717 118.958 258.411 120.825 258.249 122.715C258.145 123.656 258.073 124.606 257.95 125.543L257.374 128.313C256.945 130.149 256.73 132.055 256.211 133.868C255.675 135.681 255.14 137.489 254.607 139.294C252.078 146.345 249.132 153.384 244.828 159.478C242.933 162.728 240.418 165.455 238.133 168.38L237.697 168.923L237.479 169.193L237.371 169.33C237.272 169.435 237.864 168.912 237.549 169.197L236.479 170.26L234.346 172.381L232.228 174.483C231.526 175.174 230.813 175.936 230.153 176.417C228.803 177.526 227.463 178.628 226.131 179.722C225.446 180.265 224.827 180.867 224.089 181.367L221.852 182.851C220.356 183.847 218.871 184.839 217.397 185.82C215.857 186.683 214.287 187.476 212.74 188.304C206.53 191.589 199.998 193.738 193.582 195.39C190.342 195.999 187.134 196.609 183.972 197.042C182.379 197.159 180.804 197.272 179.249 197.382C177.689 197.452 176.138 197.671 174.616 197.55C173.086 197.503 171.577 197.456 170.087 197.405C168.595 197.354 167.108 197.366 165.676 197.12C164.233 196.925 162.81 196.729 161.408 196.542C160.012 196.312 158.603 196.218 157.284 195.831C154.621 195.163 152.013 194.581 149.523 193.905C147.093 193.057 144.738 192.241 142.495 191.401C140.249 190.565 138.249 189.413 136.248 188.503C135.257 188.023 134.289 187.558 133.345 187.101C132.449 186.554 131.575 186.023 130.725 185.507C129.029 184.456 127.422 183.464 125.911 182.53C124.443 181.53 123.179 180.44 121.94 179.507C120.718 178.55 119.586 177.663 118.55 176.855C117.526 176.031 116.729 175.128 115.944 174.402C112.876 171.414 111.239 169.82 111.239 169.82C111.239 169.82 112.862 171.429 115.905 174.445C116.234 174.754 116.572 175.105 116.922 175.457C117.263 175.801 117.643 176.145 118.033 176.494C118.035 176.496 118.038 176.5 118.041 176.5C118.196 176.641 118.327 176.781 118.494 176.918C119.008 177.34 119.545 177.781 120.105 178.242C120.656 178.695 121.229 179.164 121.825 179.652C121.939 179.744 122.061 179.849 122.177 179.943C123.283 180.843 124.419 181.845 125.729 182.789C127.206 183.789 128.774 184.855 130.431 185.98C137.138 190.316 145.826 195.046 156.692 198.191C167.504 201.355 180.406 203.316 194.628 202.121C196.395 201.894 198.18 201.66 199.983 201.426C201.794 201.196 203.648 201.039 205.452 200.563C209.083 199.727 212.884 199.063 216.542 197.7C218.399 197.098 220.3 196.524 222.188 195.864C224.024 195.071 225.876 194.27 227.741 193.466C228.679 193.056 229.621 192.646 230.566 192.236C231.51 191.81 232.427 191.228 233.368 190.72C235.249 189.654 237.142 188.575 239.05 187.493C240.071 186.946 240.821 186.38 241.645 185.817L244.102 184.118L246.575 182.411L247.817 181.552L249.366 180.236C252.653 177.349 256.213 174.572 259.198 171.142C265.626 164.685 271.039 156.888 275.601 148.4C280.177 139.869 283.213 130.377 285.29 120.502C285.691 118.018 286.022 115.502 286.369 112.979C286.449 112.346 286.551 111.713 286.611 111.081L286.703 109.171L286.873 105.332L287.024 101.471C287.051 100.17 286.925 98.885 286.879 97.59Z" />
  <path fill="#4A6EB4" d="M108.197 166.218C110.179 168.562 111.237 169.812 111.237 169.812C111.237 169.812 110.18 168.519 108.197 166.093V166.218Z" />
  <path fill="currentColor" d="M52.08 136.476C52.08 145.956 49.856 153.05 45.41 157.761C40.179 163.054 33.607 165.702 25.696 165.702C18.242 165.702 11.965 163.155 6.865 158.054C3.856 155.046 1.961 151.55 1.177 147.558C0.392 143.636 0 137.851 0 130.199C0 122.551 0.392 116.761 1.177 112.84C1.961 108.854 3.857 105.355 6.865 102.345C11.965 97.2449 18.242 94.6949 25.696 94.6949C33.215 94.6949 39.361 96.8859 44.135 101.267C48.384 105.255 51 110.519 51.981 117.059H38.251C36.55 110.258 32.366 106.858 25.696 106.858C22.034 106.858 19.125 108.102 16.967 110.587C14.743 113.396 13.632 119.935 13.632 130.2C13.632 140.727 14.743 147.302 16.967 149.915C18.992 152.333 21.903 153.544 25.696 153.544C29.75 153.544 32.986 152.235 35.406 149.622C37.498 147.204 38.545 144.095 38.545 140.302V137.654H25.696V126.279H52.08V136.476ZM92.782 95.1849L118.283 165.117H104.061L99.941 152.758H99.843L87.681 115.781L78.854 141.281H87.485L91.31 152.758H75.029L70.812 165.117H56.591L81.993 95.1849H92.782V95.1849ZM126.422 165.117V95.2839H172.421V107.447H140.055V123.824H167.616V135.988H140.055V152.953H172.421V165.117H126.422ZM185.76 165.117V95.2839H199.393V152.952H231.073V165.116H185.76V165.117Z" />
</svg>
