<svg xmlns="http://www.w3.org/2000/svg" viewBox="0 0 537 540"><style/><path fill="#ff585b" d="M435.2 155.5C396.6 41.5 272.9-19.7 159 18.8 45.1 57.4-15.9 181.1 22.7 295.2s162.2 175.2 276.2 136.7c113.8-38.6 174.9-162.3 136.3-276.4zM279.9 376.8C196.5 405 106 360.2 77.8 276.8s16.4-174 99.8-202.2c83.4-28.2 173.9 16.6 202.1 100 28.3 83.4-16.4 174-99.8 202.2z"/><circle cx="229.9" cy="161" r="72" fill="currentColor"/><path fill="currentColor" d="M104.9 293.9s37 73.5 125 73.5 123.8-73.5 123.8-73.5-.2-15.3-23.7-34.4-42-21.5-47.4-20.7c-2.6.4-6.5 1.5-10.6 4.1-5.4 3.4-22.6 12.8-42 13.2-22.1.5-45-14.3-46.7-15.7-1.7-1.4-7.4-3.8-14.3-1.6-6.9 2.2-29.5 9.8-45.1 25.6s-18.2 27.7-19 29.5z"/><path fill="#ff585b" d="M339.5 413.3l100.7 108.8s39.2 25.9 69.5-3.1c28.4-27.1 13.3-60.4 13.3-60.4L414.3 339.9s-11.1 16-34.1 39.4c-16.8 17.1-40.7 34-40.7 34z"/></svg>