<svg xmlns="http://www.w3.org/2000/svg" viewBox="0 0 45 60"><path fill="currentColor" fill-rule="evenodd" d="M22.3991 14.9172C26.5214 14.9172 29.8627 18.2585 29.8627 22.3808C29.8627 26.5021 26.5214 29.8444 22.3991 29.8444C21.0388 29.8444 19.765 29.4795 18.6673 28.8431V26.5444C19.6578 27.4336 20.964 27.9785 22.3991 27.9785C25.4906 27.9785 27.9968 25.4723 27.9968 22.3808C27.9968 19.2883 25.4906 16.7821 22.3991 16.7821C19.3076 16.7821 16.8014 19.2883 16.8014 22.3808V44.7795H14.9355V22.3808C14.9355 18.2575 18.2768 14.9172 22.3991 14.9172ZM22.3991 11.1855C28.582 11.1855 33.5945 16.1979 33.5945 22.3809C33.5945 28.5639 28.582 33.5763 22.3991 33.5763C21.0899 33.5763 19.8348 33.3491 18.6673 32.936V30.9314C19.8102 31.4311 21.0722 31.7104 22.3991 31.7104C27.5522 31.7104 31.7286 27.533 31.7286 22.3809C31.7286 17.2288 27.5522 13.0504 22.3991 13.0504C17.247 13.0504 13.0696 17.2288 13.0696 22.3809V48.5025H11.2037V22.3809C11.2037 16.1979 16.2161 11.1855 22.3991 11.1855ZM22.3991 7.45182C30.6427 7.45182 37.3263 14.1354 37.3263 22.381C37.3263 30.6266 30.6427 37.3092 22.3991 37.3092C21.1106 37.3092 19.8594 37.1459 18.6673 36.839V34.8984C19.8506 35.2515 21.1017 35.4433 22.3991 35.4433C29.6129 35.4433 35.4614 29.5948 35.4614 22.381C35.4614 15.1672 29.6129 9.31772 22.3991 9.31772C15.1853 9.31772 9.33679 15.1672 9.33679 22.381H9.33777V52.2335H7.47187V22.381H7.47285C7.47285 14.1354 14.1555 7.45182 22.3991 7.45182ZM22.39 3.73162C32.6953 3.73162 41.0481 12.0854 41.0481 22.3906C41.0481 32.6949 32.6953 41.0477 22.39 41.0477C21.1153 41.0477 19.87 40.9198 18.6671 40.6769V38.7588C19.8651 39.0303 21.1104 39.1779 22.39 39.1779C31.6605 39.1779 39.1753 31.6621 39.1753 22.3906C39.1753 13.1182 31.6605 5.60146 22.39 5.60146C13.1225 5.60146 5.60971 13.1133 5.60479 22.3808H5.60676V55.9651H3.732V22.3808C3.73692 12.0805 12.0877 3.73162 22.39 3.73162ZM22.39 -0.000183105C34.7559 -0.000183105 44.7799 10.0238 44.7799 22.3906C44.7799 34.7556 34.7559 44.7795 22.39 44.7795C21.1212 44.7795 19.8789 44.6693 18.6671 44.4667V42.5654C19.875 42.7867 21.1182 42.9087 22.39 42.9087C33.7222 42.9087 42.9081 33.7218 42.9081 22.3906C42.9081 11.0575 33.7222 1.87064 22.39 1.87064C11.0609 1.87064 1.87692 11.0526 1.87102 22.3808H1.87495V59.6969H0.000198364V22.3808C0.0051164 10.0198 10.0271 -0.000183105 22.39 -0.000183105Z" clip-rule="evenodd"/><path fill="#FF4713" fill-rule="evenodd" d="M26.1314 22.3807C26.1314 24.4424 24.4602 26.1125 22.3996 26.1125C20.3379 26.1125 18.6678 24.4424 18.6678 22.3807C18.6678 20.3191 20.3379 18.6489 22.3996 18.6489C24.4602 18.6489 26.1314 20.3191 26.1314 22.3807Z" clip-rule="evenodd"/></svg>